<svg xmlns="http://www.w3.org/2000/svg" xmlns:xlink="http://www.w3.org/1999/xlink" width="401" height="380" viewBox="0 0 401 380">
  <defs>
    <linearGradient id="linear-gradient" x1="0.5" x2="0.5" y2="1" gradientUnits="objectBoundingBox">
      <stop offset="0" stop-color="#1a65bc"/>
      <stop offset="0.301" stop-color="#0f76d2"/>
      <stop offset="0.691" stop-color="#0488e9"/>
      <stop offset="0.935" stop-color="#008ff2"/>
    </linearGradient>
    <filter id="Elipse_74" x="0" y="0" width="380" height="380" filterUnits="userSpaceOnUse">
      <feOffset dy="3" input="SourceAlpha"/>
      <feGaussianBlur stdDeviation="3" result="blur"/>
      <feFlood/>
      <feComposite operator="in" in2="blur"/>
      <feComposite in="SourceGraphic"/>
    </filter>
    <clipPath id="clip-path">
      <rect id="Rectángulo_24658" data-name="Rectángulo 24658" width="378.5" height="326.501" fill="none"/>
    </clipPath>
    <clipPath id="clip-path-3">
      <rect id="Rectángulo_24654" data-name="Rectángulo 24654" width="147.205" height="230.964" fill="none"/>
    </clipPath>
    <clipPath id="clip-path-4">
      <rect id="Rectángulo_24653" data-name="Rectángulo 24653" width="147.206" height="230.963" fill="none"/>
    </clipPath>
    <linearGradient id="linear-gradient-2" x1="-0.032" y1="1.119" x2="-0.026" y2="1.119" gradientUnits="objectBoundingBox">
      <stop offset="0" stop-color="#1a65bc"/>
      <stop offset="0.306" stop-color="#0f76d2"/>
      <stop offset="0.692" stop-color="#0488e9"/>
      <stop offset="0.935" stop-color="#008ff2"/>
      <stop offset="1" stop-color="#008ff2"/>
    </linearGradient>
    <clipPath id="clip-path-5">
      <rect id="Rectángulo_24656" data-name="Rectángulo 24656" width="29.287" height="29.288" fill="none"/>
    </clipPath>
    <clipPath id="clip-path-6">
      <path id="Trazado_5547" data-name="Trazado 5547" d="M119.257,49.324A14.643,14.643,0,1,1,104.613,34.68a14.644,14.644,0,0,1,14.643,14.644" transform="translate(-89.97 -34.68)" fill="none"/>
    </clipPath>
    <linearGradient id="linear-gradient-3" x1="-2.669" y1="10.119" x2="-2.639" y2="10.119" gradientUnits="objectBoundingBox">
      <stop offset="0" stop-color="#b8e93f"/>
      <stop offset="0.011" stop-color="#b8e93f"/>
      <stop offset="1" stop-color="#66bc4d"/>
    </linearGradient>
    <linearGradient id="linear-gradient-5" x1="0.5" x2="0.5" y2="1" gradientUnits="objectBoundingBox">
      <stop offset="0" stop-color="#b311c4"/>
      <stop offset="1" stop-color="#d2001e"/>
    </linearGradient>
    <linearGradient id="linear-gradient-6" x1="0.5" x2="0.5" y2="1" gradientUnits="objectBoundingBox">
      <stop offset="0" stop-color="#ff5a00"/>
      <stop offset="1" stop-color="#ffbe00"/>
    </linearGradient>
  </defs>
  <g id="Grupo_11743" data-name="Grupo 11743" transform="translate(-94 -5155.696)">
    <g transform="matrix(1, 0, 0, 1, 94, 5155.7)" filter="url(#Elipse_74)">
      <circle id="Elipse_74-2" data-name="Elipse 74" cx="181" cy="181" r="181" transform="translate(9 6)" opacity="0.1" fill="url(#linear-gradient)"/>
    </g>
    <g id="Grupo_11000" data-name="Grupo 11000" transform="translate(116.5 5179.714)">
      <g id="Grupo_10999" data-name="Grupo 10999" clip-path="url(#clip-path)">
        <g id="Grupo_10998" data-name="Grupo 10998">
          <g id="Grupo_10997" data-name="Grupo 10997" clip-path="url(#clip-path)">
            <path id="Trazado_5540" data-name="Trazado 5540" d="M251.945,63.38a1.129,1.129,0,0,1-.855-.809l-2.606-9.608a1.128,1.128,0,1,1,2.177-.592l2.607,9.608a1.128,1.128,0,0,1-1.323,1.4" transform="translate(-32.625 -6.768)"/>
            <path id="Trazado_5541" data-name="Trazado 5541" d="M245.312,60.408a1.129,1.129,0,0,1-.062-2.193l9.6-2.608a1.129,1.129,0,0,1,.592,2.179l-9.6,2.608a1.12,1.12,0,0,1-.53.015" transform="translate(-32.097 -7.297)"/>
            <rect id="Rectángulo_24650" data-name="Rectángulo 24650" width="169.329" height="321.022" transform="translate(7.371 5.479)" fill="#1a1a1a"/>
            <rect id="Rectángulo_24651" data-name="Rectángulo 24651" width="147.206" height="273.777" transform="translate(16.823 19.568)" fill="#fff"/>
            <g id="Grupo_10991" data-name="Grupo 10991" transform="translate(4.682 68.101)" opacity="0.05">
              <g id="Grupo_10990" data-name="Grupo 10990">
                <g id="Grupo_10989" data-name="Grupo 10989" clip-path="url(#clip-path-3)">
                  <g id="Grupo_10988" data-name="Grupo 10988" transform="translate(0 0.001)">
                    <g id="Grupo_10987" data-name="Grupo 10987" clip-path="url(#clip-path-4)">
                      <rect id="Rectángulo_24652" data-name="Rectángulo 24652" width="147.206" height="230.963" fill="url(#linear-gradient-2)"/>
                    </g>
                  </g>
                </g>
              </g>
            </g>
            <path id="Trazado_5542" data-name="Trazado 5542" d="M111.847,354.354a8.006,8.006,0,1,1-8.007-8.007,8.007,8.007,0,0,1,8.007,8.007" transform="translate(-12.585 -45.482)" fill="#fff"/>
            <path id="Trazado_5543" data-name="Trazado 5543" d="M96.033,347.016H.735a.631.631,0,0,1-.632-.632V230.647a.632.632,0,0,1,1.263,0V345.753H96.033a.632.632,0,1,1,0,1.263" transform="translate(-0.014 -30.205)" fill="#1a1a1a"/>
            <path id="Trazado_5544" data-name="Trazado 5544" d="M105.842,323.8H23.571a.631.631,0,0,1-.632-.632V276.991a.632.632,0,0,1,1.263,0v45.547h81.64a.632.632,0,1,1,0,1.263" transform="translate(-3.012 -36.291)" fill="#1a1a1a"/>
            <path id="Trazado_5545" data-name="Trazado 5545" d="M103.016,362.9a8.638,8.638,0,1,1,8.638-8.639,8.649,8.649,0,0,1-8.638,8.639m0-16.012a7.376,7.376,0,1,0,7.372,7.373,7.381,7.381,0,0,0-7.372-7.373" transform="translate(-12.394 -45.387)" fill="#1d1d1b"/>
            <path id="Trazado_5546" data-name="Trazado 5546" d="M119.327,49.324A14.643,14.643,0,1,1,104.684,34.68a14.642,14.642,0,0,1,14.642,14.644" transform="translate(-11.824 -4.554)" fill="#fff"/>
            <g id="Grupo_10996" data-name="Grupo 10996" transform="translate(78.155 30.126)" opacity="0.4">
              <g id="Grupo_10995" data-name="Grupo 10995">
                <g id="Grupo_10994" data-name="Grupo 10994" clip-path="url(#clip-path-5)">
                  <g id="Grupo_10993" data-name="Grupo 10993" transform="translate(0 0)">
                    <g id="Grupo_10992" data-name="Grupo 10992" clip-path="url(#clip-path-6)">
                      <rect id="Rectángulo_24655" data-name="Rectángulo 24655" width="29.287" height="29.288" transform="translate(0 0)" fill="url(#linear-gradient-3)"/>
                    </g>
                  </g>
                </g>
              </g>
            </g>
            <path id="Trazado_5548" data-name="Trazado 5548" d="M99.639,52.81a8.224,8.224,0,1,1,15.251-4.368,8.326,8.326,0,0,1-8.207,8.213h-.1a8.2,8.2,0,0,1-4.175-1.143l-.2-.12-3.327.873.887-3.248Z" transform="translate(-12.927 -5.294)" fill="#fff"/>
            <path id="Trazado_5549" data-name="Trazado 5549" d="M111.523,52.309a1.627,1.627,0,0,0,.113-.782c-.042-.022-.1-.049-.149-.073l-.118-.056c-.248-.129-1.4-.691-1.591-.758-.038-.013-.074-.026-.1-.033l0,.008c-.167.256-.608.771-.79.982a.725.725,0,0,1-.97.148,6.851,6.851,0,0,1-3.41-2.994.725.725,0,0,1,.2-.966,2.607,2.607,0,0,0,.5-.691.071.071,0,0,0-.007-.059c-.067-.13-.308-.719-.643-1.539l-.119-.292c-.064-.154-.1-.175-.1-.176h-.116c-.136-.008-.274-.008-.42-.008a.52.52,0,0,0-.377.172l-.008.008a2.355,2.355,0,0,0-.739,1.735,4.284,4.284,0,0,0,.9,2.252l.06.083a9.78,9.78,0,0,0,3.883,3.418,4.373,4.373,0,0,0,2.67.572,2.072,2.072,0,0,0,1.341-.949" transform="translate(-13.483 -5.911)"/>
            <path id="Trazado_5550" data-name="Trazado 5550" d="M115.756,48.28a9.244,9.244,0,1,0-17.269,4.6l.077.136L97.335,57.5l4.6-1.207.13.071a9.2,9.2,0,0,0,4.393,1.121,9.33,9.33,0,0,0,9.3-9.207m-9.16,8.336h0l-.131,0a8.338,8.338,0,0,1-4.245-1.161l-.156-.093-3.483.914.929-3.4-.1-.165a8.347,8.347,0,1,1,15.479-4.434,8.47,8.47,0,0,1-8.288,8.338" transform="translate(-12.772 -5.132)"/>
            <path id="Trazado_5551" data-name="Trazado 5551" d="M.632,198.267A.631.631,0,0,1,0,197.635V.631A.631.631,0,0,1,.632,0H108.486a.632.632,0,1,1,0,1.263H1.263V197.635a.631.631,0,0,1-.632.632" transform="translate(0 0)" fill="#1a1a1a"/>
            <path id="Trazado_5552" data-name="Trazado 5552" d="M207.243,211.927a.633.633,0,0,1-.633-.63l-.11-146.77a.633.633,0,0,1,1.267,0l.11,146.77a.631.631,0,0,1-.633.63" transform="translate(-27.117 -8.391)" fill="#1a1a1a"/>
            <path id="Trazado_5553" data-name="Trazado 5553" d="M309.727,167.364s-1.377,10.687-1.341,13.956-1.377,5.782,3.414,6.915,13.357,2.059,16.491,1.505,9.921-3.073,10.761-7.695,1.106-7,1.106-7l4.1-.1s9.907-12.368,11.33-14.571,2.455-2.709,2.106-4.379a95.488,95.488,0,0,0-2.774-10.7c-.962-2.341-1.463-4.724-3.429-5.644s-12.2-3.847-14.3-4.892-2.974-4.253-4.2-5.844a10.539,10.539,0,0,0-7.05-3.628c-3.041-.222-9.752-.135-14.088,3.267a21.876,21.876,0,0,0-7.847,13.521c-.625,4.682,3.549,8.79,3.549,8.79l1.67.562Z" transform="translate(-39.913 -16.443)" fill="#1a1a1a"/>
            <path id="Trazado_5554" data-name="Trazado 5554" d="M117.3,186.006s-1.453,3.1-10.853,1.176l-.579,2.486-.428,2.351,2.9,3.364L111,200.128s3.485.569,5.554-1.976c2.291-2.81.745-12.146.745-12.146" transform="translate(-13.846 -24.426)" fill="#fff"/>
            <path id="Trazado_5555" data-name="Trazado 5555" d="M311.805,168.63s-1.014,4.325,3.143,4.191a5.609,5.609,0,0,1,3.349-1.457,11.682,11.682,0,0,1,5.42.477,30.1,30.1,0,0,1,8.032,5.458c.374.333,3.475-2.26,3.475-2.26a36.607,36.607,0,0,0,1.143-8.106,80.865,80.865,0,0,0-1.684-12.94c-.446-1.379-.363-2.062-1.718-2.323s-14.06-1.516-16.181-1.359-7.522.076-7.522.076v3.93s-6.1-.827-5.638,8.386c.506,10.118,6.513,7.867,6.513,7.867l1.274-.292Z" transform="translate(-39.868 -19.737)" fill="#fff"/>
            <path id="Trazado_5556" data-name="Trazado 5556" d="M343.5,172.329a15.942,15.942,0,0,1-2.019-7.167c.041-3.666,1.372-6.162,3.686-6.337s8.006.2,8.2,6.11-7.487,7.755-7.487,7.755-.431,5.1,1.234,6.56l2.257,10.812s-11.857,11.088-17.971,9.973-6.161-6.125-6.161-6.125,5.849.567,8.458-.461,6.69-3.566,7.939-6.4,1.86-14.72,1.86-14.72" transform="translate(-42.71 -20.853)" fill="#fff"/>
            <path id="Trazado_5557" data-name="Trazado 5557" d="M211.065,311.174l-3.652,2.042a82.473,82.473,0,0,0-9.3-3.718,6.865,6.865,0,0,0-5.877,1.148,4.8,4.8,0,0,1-1.93.771,17.6,17.6,0,0,0-4.992-2.216c-2.135-.372-6.6,1.78-6.6,1.78l-2.148-.826s-6.522,16.591-7.859,18.175l8.167,4.164a12.773,12.773,0,0,0,6.881,6.971,26.641,26.641,0,0,0,8.365,2.237s5.811,1.4,7.44.619a32,32,0,0,0,7.855-6.789,25.538,25.538,0,0,0,2.335-4.658l2.02-2.083,5.639-2.439Z" transform="translate(-22.153 -40.598)" fill="#fff"/>
            <path id="Trazado_5558" data-name="Trazado 5558" d="M94.046,190.9s3.694,1.289,5.853,1.133,2.615-3.315,2.615-3.315l.96-6.214s6.16.932,9.236,0,5.554-3.157,6.252-9.192.362-21.129.362-21.129l-24.314,1.1s.569-4.706-1.062-6.319c0,0-.67.948-.124,5.845s.946,11.222,1.4,12.419,2.391,8.258,2.165,13.045-1,9.828-3.344,12.631" transform="translate(-12.293 -19.299)" fill="#fff"/>
            <path id="Trazado_5559" data-name="Trazado 5559" d="M310.687,198.913a279.519,279.519,0,0,0-3.75,28.587c-.788,12.79-1.361,44.509.433,55.324,0,0,5.195-24.614,7.088-33.615,2.289-10.89,8.6-27.876,13.564-39.052s6.8-15.091,6.8-15.091l6.241,7.513s12.428,1.472,22.46,8.067,17.59,16.041,19.386,28.956-.972,79-.972,79H273.455l1.152-21.6s-10.777,12.651-46.892,24l-13.521-32.083s28.732-13.167,37.729-20.232,14.144-18.883,18.5-26.417c4.292-7.412,10.758-20.955,22.126-31.324,2.575-2.342,6.66-6.465,11.482-7.885l4.568-4.3Z" transform="translate(-28.128 -25.616)" fill="#fff"/>
            <path id="Trazado_5637" data-name="Trazado 5637" d="M310.687,198.913a279.519,279.519,0,0,0-3.75,28.587c-.788,12.79-1.361,44.509.433,55.324,0,0,5.195-24.614,7.088-33.615,2.289-10.89,8.6-27.876,13.564-39.052s6.8-15.091,6.8-15.091l6.241,7.513s12.428,1.472,22.46,8.067,17.59,16.041,19.386,28.956-.972,79-.972,79H273.455l1.152-21.6s-10.777,12.651-46.892,24l-13.521-32.083s28.732-13.167,37.729-20.232,14.144-18.883,18.5-26.417c4.292-7.412,10.758-20.955,22.126-31.324,2.575-2.342,6.66-6.465,11.482-7.885l4.568-4.3Z" transform="translate(-29.093 -25.616)" opacity="0.38" fill="url(#linear-gradient)"/>
            <path id="Trazado_5560" data-name="Trazado 5560" d="M309.913,149.021s-2.469-.983-1.645-6.785,3.1-10.869,7.245-13.209,8.058-4.752,14.341-2.894c4.911,1.454,4.276,5.447,6.151,7.3s6.143,3.816,12.3,4.742,6.474,3.625,8.118,9.526a53.1,53.1,0,0,1,1.981,9.775c.11,1.052-13.6,17.493-13.6,17.493a7.96,7.96,0,0,1-1.078-6.429s6.947-.2,6.975-7.416c.012-3.167-1.751-6.456-5.041-6.631-3.728-.2-5.9,1.736-6.268,4.7a13.927,13.927,0,0,0,1.945,9.159s-1.768,14.146-1.853,14.571-5.5,6.5-9.929,6.752-15.868.44-16.4-2.034c0,0-1.434-3.354-1.422-9.926a72.441,72.441,0,0,1,.554-10.308,2.923,2.923,0,0,0,3.217,2.254c.166-.012.345-1.008,2.907-1.529,2.129-.433,1.117-.453,4.959.252s9.31,6.088,9.31,6.088,6.32-2.031,6.76-3.048c.728-1.678.046-7.322.046-7.322s-.12-9.475-.4-11.873c-.531-4.53-5.433-3.973-5.433-3.973l-19.923-1.346-3.916.314Z" transform="translate(-40.459 -16.477)" fill="#1a1a1a"/>
            <path id="Trazado_5561" data-name="Trazado 5561" d="M58.074,200.909s3.6-3.756,5.929-3.747,8.305,2.671,13.553,0,11.574-5.6,13.3-14.025a38.549,38.549,0,0,0-.958-17.876c-.578-2.335-2.357-21.318-2.357-21.318s2.7,4.516,1.71,7.617l26.487-.756s1.9-6.726-.141-10.951c-1.081-2.246-5.251-6.835-17.269-8.47s-26.7,7.644-27.19,8.8.376,10.041.376,15.96-.208,16.948-8.135,19.81c0,0-9.789,4.114-9.769,12.657s4.46,12.3,4.46,12.3" transform="translate(-7.041 -17.228)" fill="#fff"/>
            <path id="Trazado_5562" data-name="Trazado 5562" d="M59.155,200.127s3.466-3.327,5.8-3.317,6.626,2.157,11.876-.514,8.135-5.019,9.866-13.445a38.544,38.544,0,0,0-.957-17.874c-.45-1.816.278-14.91.621-20.62a1.037,1.037,0,0,1,1.912-.492,10.812,10.812,0,0,1,1.539,7.41l23.042-.5s-.731-9.609-1.415-10.862-5.127-8.486-17.255-8.621c-11.5-.126-22.248,7.679-22.735,8.834s.461,12.454.461,18.377-2,16.138-7.969,17.163c0,0-10.224,4.5-9.75,13.026a18.862,18.862,0,0,0,4.966,11.436" transform="translate(-7.114 -17.241)" fill="#1a1a1a"/>
            <path id="Trazado_5563" data-name="Trazado 5563" d="M150,318.855s9.8-16.944,11.519-25.915L141.1,285.8s.376-8.37-.016-15.67c-1.794-33.405-6.945-40.4-9.409-45.766s-8.917-11.727-15.282-19.06c-2.183-2.519-7.6-4.89-7.6-4.89a9.837,9.837,0,0,1-2.008,1.723,11.972,11.972,0,0,1-3.227,0s2.246,12.679,5.49,32.848c0,0-2.353-5.189-14.74-18.373a54.744,54.744,0,0,0-6.781-5.177s-4.85-.488-8.487-6.464c0,0-5.386,3.278-11.368,1.255a7.882,7.882,0,0,0-9.514,2.976s-9.432,9-9.7,20.925S51.1,249.218,51.1,249.218l5.587,42.611-4.733,27.026,79.664.449-.569-4.752Z" transform="translate(-6.36 -26.319)" fill="#fff"/>
            <path id="Trazado_5636" data-name="Trazado 5636" d="M150,318.855s9.8-16.944,11.519-25.915L141.1,285.8s.376-8.37-.016-15.67c-1.794-33.405-6.945-40.4-9.409-45.766s-8.917-11.727-15.282-19.06c-2.183-2.519-7.6-4.89-7.6-4.89a9.837,9.837,0,0,1-2.008,1.723,11.972,11.972,0,0,1-3.227,0s2.246,12.679,5.49,32.848c0,0-2.353-5.189-14.74-18.373a54.744,54.744,0,0,0-6.781-5.177s-4.85-.488-8.487-6.464c0,0-5.386,3.278-11.368,1.255a7.882,7.882,0,0,0-9.514,2.976s-9.432,9-9.7,20.925S51.1,249.218,51.1,249.218l5.587,42.611-4.733,27.026,79.664.449-.569-4.752Z" transform="translate(-6.306 -26.319)" opacity="0.31" fill="url(#linear-gradient-5)"/>
            <path id="Trazado_5564" data-name="Trazado 5564" d="M115.682,186.859s-1.472,2.285-10.872.363l-.581,2.489-.428,2.349,3.582,2.658,2.956,4.119a3.4,3.4,0,0,0,4.426-1.113c2.29-2.814.917-10.865.917-10.865" transform="translate(-13.631 -24.538)" fill="#1a1a1a"/>
            <path id="Trazado_5565" data-name="Trazado 5565" d="M92.77,196.928s4.1,2.084,6.277.969,2.14-5.051,2.14-5.051,5.213,3.191,7.025,8.3c0,0,1.845,9.733,3.166,17.988,1.227,7.664,2.325,14.861,2.325,14.861a66.619,66.619,0,0,0-11.64-15.153c-7.029-6.9-9.881-8.4-9.881-8.4s-6.5-1.531-8.287-6.147c0,0,6.87-4.053,8.876-7.368" transform="translate(-11.017 -25.324)" fill="#fff"/>
            <path id="Trazado_5566" data-name="Trazado 5566" d="M331.819,209.121,335,216.379l-2.8,6.234-1.169,18.834s-2.778,9.88-4.726,18.614-3.04,14.172-3.04,14.172-.592-5.521-.691-17.35c-.095-11.587.43-16.919.43-16.919l6.479-18.3-1.313-7.005Z" transform="translate(-42.358 -27.462)" fill="#014659"/>
            <path id="Unión_2" data-name="Unión 2" d="M12.636,59.076h.2A12.836,12.836,0,0,1,0,46.24v-33.4A12.836,12.836,0,0,1,12.836,0H74.4A12.838,12.838,0,0,1,87.242,12.836v33.4A12.838,12.838,0,0,1,74.4,59.076H29.066c.155,19.471-25.016,20.1-25.016,20.1C18.3,72.941,12.636,59.076,12.636,59.076Z" transform="translate(116.399 65.212)" fill="#fff" stroke="rgba(0,0,0,0)" stroke-miterlimit="10" stroke-width="1"/>
            <path id="Unión_3" data-name="Unión 3" d="M12.636,59.076h.2A12.836,12.836,0,0,1,0,46.24v-33.4A12.836,12.836,0,0,1,12.836,0H74.4A12.838,12.838,0,0,1,87.242,12.836v33.4A12.838,12.838,0,0,1,74.4,59.076H29.066c.155,19.471-25.016,20.1-25.016,20.1C18.3,72.941,12.636,59.076,12.636,59.076Z" transform="translate(116.473 65.212)" stroke="rgba(0,0,0,0)" stroke-miterlimit="10" stroke-width="1" opacity="0.5" fill="url(#linear-gradient-6)"/>
            <path id="Trazado_5569" data-name="Trazado 5569" d="M214.9,120.647h44.97a9.374,9.374,0,0,1,9.375,9.372v24.4a9.377,9.377,0,0,1-9.375,9.377c.145,0-3.988,10.125,6.418,14.682,0,0-18.385-.461-18.271-14.682H214.9a9.377,9.377,0,0,1-9.374-9.377v-24.4a9.374,9.374,0,0,1,9.374-9.372" transform="translate(-26.99 -15.843)" fill="#fff"/>
            <path id="Trazado_5633" data-name="Trazado 5633" d="M214.9,120.647h44.97a9.374,9.374,0,0,1,9.375,9.372v24.4a9.377,9.377,0,0,1-9.375,9.377c.145,0-3.988,10.125,6.418,14.682,0,0-18.385-.461-18.271-14.682H214.9a9.377,9.377,0,0,1-9.374-9.377v-24.4a9.374,9.374,0,0,1,9.374-9.372" transform="translate(-26.99 -15.843)" opacity="0.28" fill="url(#linear-gradient-6)"/>
            <path id="Trazado_5570" data-name="Trazado 5570" d="M105.17,178.821a5.767,5.767,0,0,1-3.085-4.1,3.489,3.489,0,0,1,.452-2.947,2.009,2.009,0,0,1,1.515-.725,2.712,2.712,0,0,1,2.351,1.88c.473,1.214.6,1.274,1.238,1.513a5.237,5.237,0,0,0,1.3-.314,2.763,2.763,0,0,1,2.921.591,2,2,0,0,1,.425,1.66c-.225,1.419-2.265,3.007-4.66,3.007a5.737,5.737,0,0,1-2.454-.563m4.111-3.65c-1.573.519-1.968.393-2.464.161-.627-.3-.892-.6-1.441-2-.4-1.035-1.377-1.547-2.016-.824a2.561,2.561,0,0,0-.2,1.994,4.509,4.509,0,0,0,4.46,3.782c2.014,0,3.456-1.343,3.571-2.077a.918.918,0,0,0-.172-.77,1.319,1.319,0,0,0-1.018-.385,2.366,2.366,0,0,0-.724.121" transform="translate(-13.391 -22.462)" fill="#1a1a1a"/>
            <path id="Trazado_5571" data-name="Trazado 5571" d="M110.27,184.259a12.24,12.24,0,0,0,3.742-.519c2.652-.838,4.451-2.8,5.5-6,1.6-4.883,1.515-10.077,1.431-15.1-.038-2.549-.063-4.632-.08-6.2-.028-2.535-.028-2.535-.05-2.623a.551.551,0,0,0-1.068.27c-.009.029,0,1,.017,2.364.017,1.578.041,3.661.07,5.549.09,5.6.175,10.7-1.366,15.4-.929,2.84-2.494,4.568-4.786,5.294a13.238,13.238,0,0,1-5.162.387,57.352,57.352,0,0,1-6.439-.86.567.567,0,0,0-.646.431.55.55,0,0,0,.431.648,57.776,57.776,0,0,0,6.562.879c.653.053,1.267.083,1.844.083" transform="translate(-13.319 -20.144)" fill="#1a1a1a"/>
            <path id="Trazado_5572" data-name="Trazado 5572" d="M113.464,171.045c1.485-.329,4.706-1.193,5.181-2.424a1.016,1.016,0,0,0-.124-.966c-4.333-6.217-5.107-10.226-5.113-10.266a.551.551,0,0,0-1.083.2c.03.172.805,4.259,5.293,10.7-.15.363-2.191,1.19-4.277,1.673a.55.55,0,0,0,.124,1.087" transform="translate(-14.749 -20.609)" fill="#1a1a1a"/>
            <path id="Trazado_5573" data-name="Trazado 5573" d="M122.3,157.292c.572-.3.62-.635.44-.876-.062-.083-1.607-2.059-5.5-.958a.551.551,0,0,0-.38.679.566.566,0,0,0,.679.382c3.13-.9,4.277.5,4.32.562a.558.558,0,0,0,.438.21" transform="translate(-15.344 -20.371)" fill="#1a1a1a"/>
            <path id="Trazado_5574" data-name="Trazado 5574" d="M101.62,158.968a6.868,6.868,0,0,1,6.3-2.454.561.561,0,0,0,.6-.5.551.551,0,0,0-.5-.6c-5.051-.453-6.807,2.606-6.881,2.735a.547.547,0,0,0,.481.817" transform="translate(-13.272 -20.403)" fill="#1a1a1a"/>
            <path id="Trazado_5575" data-name="Trazado 5575" d="M105.972,164.035a.688.688,0,0,1-.71-.681v-1.983a.681.681,0,0,1,.68-.681.689.689,0,0,1,.71.681v1.983a.682.682,0,0,1-.68.681" transform="translate(-13.823 -21.102)" fill="#1a1a1a"/>
            <path id="Trazado_5576" data-name="Trazado 5576" d="M119.76,163.666a.69.69,0,0,1-.711-.681V161a.7.7,0,0,1,1.391,0v1.983a.682.682,0,0,1-.679.681" transform="translate(-15.633 -21.053)" fill="#1a1a1a"/>
            <path id="Trazado_5577" data-name="Trazado 5577" d="M58.765,200.577c.585-.316.619-.662.427-.9-4.057-5-5.585-9.661-4.544-13.838,1.629-6.527,9.043-9.736,9.116-9.77,10.3-1.987,8.718-24.4,7.551-33.936a3.287,3.287,0,0,1,.044-1.07c.311-1.419,1.519-2.116,2.8-2.86,10.893-6.318,21.021-8.1,30.168-5.317,4.852,1.473,10.772,4.3,11.408,9.382.863,6.9-.844,8.176-.862,8.188a.563.563,0,0,0-.161.753.536.536,0,0,0,.725.192c.243-.138,2.352-1.573,1.389-9.271-.561-4.484-4.773-8.045-12.178-10.3-9.452-2.868-19.875-1.055-30.993,5.392-1.412.819-2.958,1.716-3.372,3.607a4.3,4.3,0,0,0-.061,1.433c.878,7.209,2.99,30.867-6.778,32.762-.435.17-8.106,3.494-9.866,10.548-1.128,4.532.473,9.513,4.759,14.8a.553.553,0,0,0,.427.2" transform="translate(-6.99 -17.138)" fill="#1a1a1a"/>
            <path id="Trazado_5578" data-name="Trazado 5578" d="M92.679,210.773a7.669,7.669,0,0,0,1.737-.2c3.229-.751,4.522-3.792,4.878-6.933.109.235.23.464.367.7.859,1.441,3.2,3.453,5.777,2.73,3.472-.975,3.291-4.442,3.215-5.923-.06-1.163-.79-2.554-2.373-4.625a14.316,14.316,0,0,0-4.544-4.187c-.934-.324-1.224-.144-1.293.153a.552.552,0,0,0,.407.662,12.918,12.918,0,0,1,4.554,4.044c.515.672,2.084,2.718,2.143,3.893.109,2.087.016,4.245-2.405,4.923-2.074.584-3.951-1.254-4.535-2.233a10.56,10.56,0,0,1-1.161-3.873c-.111-.665-.223-1.349-.4-2.049a.553.553,0,0,0-.653-.4.546.546,0,0,0-.421.642c.786,4.049.423,10.427-3.81,11.413-5.7,1.346-10.093-5.662-10.136-5.731a.539.539,0,0,0-.757-.179.55.55,0,0,0-.181.756c.179.287,4.035,6.428,9.587,6.428" transform="translate(-10.901 -25.234)" fill="#1a1a1a"/>
            <path id="Trazado_5579" data-name="Trazado 5579" d="M137.644,284.408a.55.55,0,0,0,.551-.546l.181-14.9c.739-1.452,6.949-14.173,4.065-25.964-1.842-7.536-6.406-18.309-11.355-26.806a.545.545,0,0,0-.751-.2.55.55,0,0,0-.2.752c4.9,8.416,9.416,19.073,11.234,26.518,2.9,11.857-3.96,25.173-4.029,25.306-.063.25-.248,15.284-.248,15.284a.553.553,0,0,0,.545.558Z" transform="translate(-17.079 -28.353)" fill="#1a1a1a"/>
            <path id="Trazado_5580" data-name="Trazado 5580" d="M150.38,286.91a.551.551,0,0,0,.551-.549c0-.3.047-30.187-3.706-46.11-6.718-28.5-28.968-40.23-29.192-40.346a.55.55,0,0,0-.5.978c.219.114,22.028,11.626,28.626,39.621,3.722,15.8,3.675,45.555,3.675,45.851a.553.553,0,0,0,.549.555Z" transform="translate(-15.395 -26.243)" fill="#1a1a1a"/>
            <path id="Trazado_5581" data-name="Trazado 5581" d="M113.031,200.792a5.613,5.613,0,0,0,3.89-1.472c2.473-2.3,3.067-6.982,1.768-13.923a.53.53,0,0,0-.643-.438.547.547,0,0,0-.44.64c1.525,8.139.066,11.511-1.425,12.905a4.811,4.811,0,0,1-4.236,1.07.551.551,0,0,0-.28,1.067,5.863,5.863,0,0,0,1.365.15" transform="translate(-14.61 -24.286)" fill="#1a1a1a"/>
            <path id="Trazado_5582" data-name="Trazado 5582" d="M119.681,305.344c-17.406-4.172-31.153-7.466-39.174-14.826C74,284.557,55.325,255.241,50.215,240.161c-1.45-4.283-7.839-26.341,9.043-39.968,3.459-2.79,5.927-2.229,8.532-1.639,3.1.7,6.615,1.5,13.243-2.4,13.244-7.787,9.36-23.059,7.7-29.583l-.246-.964c-.993-4.037-1.994-19.436-1.01-20.4a13.5,13.5,0,0,1,1.823,7.532l25.156-.445a.552.552,0,0,1,.009,1.1s-25.773.452-26.319.012a111.636,111.636,0,0,0,1.412,11.93l.241.958c1.72,6.759,5.748,22.6-8.208,30.8-7,4.121-10.909,3.231-14.044,2.524-2.551-.572-4.563-1.032-7.6,1.424-16.313,13.167-10.1,34.6-8.694,38.756,4.957,14.628,23.721,44.153,29.994,49.9,7.811,7.165,21.435,10.429,38.688,14.562.294.072.476.37-.129,1.089a.59.59,0,0,1-.129-.016M88.144,153.206a11.158,11.158,0,0,0-.357-4.394c.094,1.28.211,2.828.357,4.394" transform="translate(-6.28 -19.069)" fill="#1a1a1a"/>
            <path id="Trazado_5583" data-name="Trazado 5583" d="M114.866,236.054c.524-.773-1.51-15.436-4.974-31.718a.56.56,0,0,0-.652-.427.552.552,0,0,0-.423.653c2.6,12.234,4.395,23.545,5.13,28.453A77.627,77.627,0,0,0,93.454,211.26a.552.552,0,0,0-.631.905c8.209,5.711,15.465,13.66,21.574,23.626a.546.546,0,0,0,.469.264" transform="translate(-12.159 -26.776)" fill="#1a1a1a"/>
            <path id="Trazado_5584" data-name="Trazado 5584" d="M332.167,243.735a.551.551,0,0,0,.547-.513l1.426-19.445,2.551-6.024a.552.552,0,0,0-.293-.724.546.546,0,0,0-.72.291l-2.587,6.109c-.043.178-1.473,19.715-1.473,19.715a.548.548,0,0,0,.507.587c.014,0,.028,0,.042,0" transform="translate(-43.547 -28.494)" fill="#1a1a1a"/>
            <path id="Trazado_5585" data-name="Trazado 5585" d="M333.048,224.968c.6-.74.407-1.032.109-1.092l-5.064-1.018a.567.567,0,0,0-.647.431.549.549,0,0,0,.433.647l5.062,1.02a.648.648,0,0,0,.108.012" transform="translate(-42.998 -29.265)" fill="#1a1a1a"/>
            <path id="Trazado_5586" data-name="Trazado 5586" d="M319.965,241.268c.515-.357,7.482-18.726,7.482-18.726.026-.3-1.349-7.241-1.349-7.241a.55.55,0,1,0-1.078.216l1.343,6.783-6.911,18.221a.552.552,0,0,0,.513.747" transform="translate(-41.945 -28.215)" fill="#1a1a1a"/>
            <path id="Trazado_5587" data-name="Trazado 5587" d="M337.522,223.063c.5-.166.625-.489.506-.768l-6.718-15.627c-.961-.089-10.116,13.477-10.116,13.477a.551.551,0,0,0,.912.618l8.59-12.733,6.32,14.7a.554.554,0,0,0,.5.336" transform="translate(-42.167 -27.139)" fill="#1a1a1a"/>
            <path id="Trazado_5588" data-name="Trazado 5588" d="M321.234,284.463c-.3,0-.552-.248-.493-.8.4-2.524,5.219-32.8,12.73-53.645,4.078-11.315,8.557-21.719,11.6-28.454,2-4.41,3.139-6.562,4.052-6.684,0,0,6.342,7.316,6.466,7.566l3.509,17.011a.55.55,0,0,1-.365.632l-8.592,2.862s3.471,9.52,3.423,10c0,0-31.838,51.253-32.305,51.514Zm28.026-62.38,8.664-2.887-3.381-16.389-5.718-6.6c-.482.958-1.425,2.879-2.75,5.807-3.034,6.714-7.5,17.091-11.569,28.371-6.438,17.87-10.9,42.736-12.262,50.894l30.247-48.69s-3.574-9.8-3.231-10.512" transform="translate(-42.118 -25.591)" fill="#1a1a1a"/>
            <path id="Trazado_5589" data-name="Trazado 5589" d="M319.183,284.987a.569.569,0,0,0,.547-.593c-.02-.27-2.1-27.012-1.121-45.746.354-6.764.846-13.21,1.461-19.161a176.6,176.6,0,0,1,2.964-19.948.55.55,0,1,0-1.07-.251,176.02,176.02,0,0,0-2.987,20.087c-.619,5.97-1.114,12.432-1.468,19.213-.7,13.487.169,31.094.727,40.076l-12.22-46.578,4.868-9.155c-.105-.656-4.7-5.024-4.7-5.024l10.824-14.584a.55.55,0,1,0-.884-.653l-11.112,14.974a.549.549,0,0,0,.063.725l4.638,4.415-4.773,8.975c-.046.4,13.707,52.818,13.707,52.818a.553.553,0,0,0,.532.411" transform="translate(-40.04 -26.115)" fill="#1a1a1a"/>
            <path id="Trazado_5590" data-name="Trazado 5590" d="M257.479,337.747H411.69a.551.551,0,0,0,0-1.1H257.479a.551.551,0,0,0,0,1.1" transform="translate(-33.74 -44.208)" fill="#1a1a1a"/>
            <path id="Trazado_5591" data-name="Trazado 5591" d="M304.613,169.79a13.506,13.506,0,0,1-.371-13,5.222,5.222,0,0,1,2.056-2.038,3.471,3.471,0,0,1,1.486-.357c2.863,0,5.218,3.8,5.361,8.649a16.387,16.387,0,0,1-1.3,6.237l-.524.838a3.843,3.843,0,0,1-3.2,1.886,4.388,4.388,0,0,1-3.506-2.212m3.111-14.294a2.231,2.231,0,0,0-.934.239,4.181,4.181,0,0,0-1.605,1.623,12.423,12.423,0,0,0,.336,11.814,3.345,3.345,0,0,0,2.656,1.728,2.742,2.742,0,0,0,2.225-1.386,8.1,8.1,0,0,0,.549-.97,14.573,14.573,0,0,0,1.093-5.471c-.119-4.107-2.069-7.577-4.32-7.577" transform="translate(-39.757 -20.275)" fill="#1a1a1a"/>
            <path id="Trazado_5592" data-name="Trazado 5592" d="M318.281,164.028c-.144-4.934,2.113-8.869,5.242-8.963,2.975,0,5.418,3.8,5.559,8.649a12.25,12.25,0,0,1-1.315,6.155,4.7,4.7,0,0,1-3.926,2.806c-2.974,0-5.416-3.8-5.56-8.647m5.175-7.859c-2.332.069-4.2,3.654-4.074,7.829s2.122,7.578,4.528,7.575a3.657,3.657,0,0,0,2.894-2.231,11.147,11.147,0,0,0,1.18-5.6c-.122-4.178-2.122-7.574-4.526-7.574Z" transform="translate(-41.795 -20.363)" fill="#1a1a1a"/>
            <path id="Trazado_5593" data-name="Trazado 5593" d="M318.2,165.547c.479-.144.623-.461.515-.747-.036-.091-.889-2.37-3.042-2.244-1.728.056-2.191,2.173-2.209,2.263a.55.55,0,0,0,1.076.228c0-.013.3-1.365,1.172-1.4,1.379,0,1.967,1.52,1.973,1.538a.555.555,0,0,0,.515.357" transform="translate(-41.162 -21.346)" fill="#1a1a1a"/>
            <path id="Trazado_5594" data-name="Trazado 5594" d="M330,165.454l12.132-.336a.552.552,0,0,0,.535-.566.508.508,0,0,0-.566-.537l-12.117.336a.551.551,0,0,0,.016,1.1" transform="translate(-43.263 -21.537)" fill="#1a1a1a"/>
            <path id="Trazado_5595" data-name="Trazado 5595" d="M316.959,183.411c6.4-.373,6.63-5.3,6.631-5.354a.547.547,0,0,0-.529-.567.557.557,0,0,0-.57.527c-.006.162-.228,3.981-5.564,4.293a.551.551,0,0,0,.032,1.1" transform="translate(-41.55 -23.308)" fill="#1a1a1a"/>
            <path id="Trazado_5596" data-name="Trazado 5596" d="M312.613,174.869c.605-.383.6-.731.385-.943a2.393,2.393,0,0,0-2.8-.385.551.551,0,1,0,.574.941,1.321,1.321,0,0,1,1.458.228.55.55,0,0,0,.385.158" transform="translate(-40.7 -22.751)" fill="#1a1a1a"/>
            <path id="Trazado_5597" data-name="Trazado 5597" d="M332.606,178.165c.83,0,3.686-2.69,3.81-3.217a34.8,34.8,0,0,0,.992-9.024c-.834-9.931-1.791-14.16-3.319-14.781-2.2-.9-8.537-1.561-15.06-1.585a90.9,90.9,0,0,0-9.317.279.55.55,0,0,0-.465.572l.228,4.3a.551.551,0,0,0,.551.521.558.558,0,0,0,.549-.581l-.2-3.781c.947-.08,3.416-.267,8.651-.208,7.251.023,12.857.772,14.649,1.5.569.232,1.668,2.317,2.622,13.669a33.748,33.748,0,0,1-.946,8.845,16.122,16.122,0,0,1-2.6,2.3c-1.7-1.688-5.653-5.612-9.946-6.117a.549.549,0,1,0-.129,1.09c3.914.466,7.809,4.328,9.087,5.6.487.486.577.573.773.618a.249.249,0,0,0,.069.006" transform="translate(-40.61 -19.64)" fill="#1a1a1a"/>
            <path id="Trazado_5598" data-name="Trazado 5598" d="M325.8,190.279a28.379,28.379,0,0,0,3.079-.138c5.181-.569,10.455-5.821,10.893-8.691.379-2.471,1.293-12.905,1.333-13.348a12.215,12.215,0,0,1-1.866-8.649c.536-3.321,2.259-4.8,5.248-4.532a5.219,5.219,0,0,1,3.812,1.786c1.009,1.28,1.331,3.238.958,5.818-.757,5.222-6.095,5.332-6.321,5.332a.555.555,0,0,0-.545.52c-.012.195-.275,4.819,1.346,6.933.988-.15,12.114-14.725,13.846-16.747.876-1.019.561-2.842.356-4.047a45.3,45.3,0,0,0-1.7-6.917,28.3,28.3,0,0,0-3.131-7.441c-1.012-1.464-3.341-2.069-5.211-2.556-.414-.108-.8-.21-1.14-.313q-1.106-.331-2.221-.653c-1.812-.527-3.688-1.07-5.477-1.736a8.825,8.825,0,0,1-2.649-1.393,8.043,8.043,0,0,1-1.888-2.888,11.688,11.688,0,0,0-1.512-2.6c-2.561-3.064-7.8-3.827-11.5-3.561a21.144,21.144,0,0,0-13.379,6.34c-1.36,1.425-5.176,7.425-4.754,13.147a10.1,10.1,0,0,0,4.075,7.495.55.55,0,1,0,.673-.869,9.05,9.05,0,0,1-3.651-6.708c-.4-5.4,3.357-11.156,4.453-12.3a20.009,20.009,0,0,1,12.664-6.005c3.706-.261,8.426.6,10.573,3.172a10.494,10.494,0,0,1,1.359,2.359,9.063,9.063,0,0,0,2.17,3.261,9.792,9.792,0,0,0,2.979,1.585c1.829.681,3.724,1.23,5.555,1.762.737.213,1.475.427,2.211.652.351.1.751.21,1.179.321,1.694.44,3.8.989,4.582,2.116a25.54,25.54,0,0,1,2.86,6.744,45.354,45.354,0,0,1,1.73,6.789c.225,1.327.5,2.9-.043,3.53-1.561,1.823-10.3,13.253-12.516,16.148a13.279,13.279,0,0,1-.76-5.072c1.568-.173,6.133-1.121,6.873-6.24.42-2.89.023-5.129-1.182-6.657a6.273,6.273,0,0,0-4.574-2.2c-3.548-.331-5.8,1.561-6.435,5.455a12.052,12.052,0,0,0,1.838,8.938c-.135,1.525-.961,10.821-1.306,13.063-.351,2.293-5.063,7.234-9.925,7.767-5.4.6-17.426-.738-19.286-2.479-1.369-1.283-.267-10.611.325-15.626.18-1.507.334-2.821.417-3.77a.55.55,0,0,0-.5-.6.57.57,0,0,0-.6.5c-.08.942-.235,2.245-.411,3.738-.964,8.151-1.629,15.02.013,16.559,1.976,1.849,11.228,2.907,17.08,2.907" transform="translate(-39.834 -16.337)" fill="#1a1a1a"/>
            <path id="Trazado_5599" data-name="Trazado 5599" d="M352.517,194.046a.571.571,0,0,0,.539-.659l-2.239-11.346a.55.55,0,0,0-1.079.216l2.239,11.346a.55.55,0,0,0,.539.443" transform="translate(-45.926 -23.848)" fill="#1a1a1a"/>
            <path id="Trazado_5600" data-name="Trazado 5600" d="M315.858,174.644a.55.55,0,0,0,.038-1.1,2.972,2.972,0,0,1-2.329-.988c-.745-1.058-.23-2.9.148-4.247.626-2.233,2.716-8.233,2.738-8.3a.551.551,0,0,0-1.042-.361c-.085.246-2.12,6.091-2.741,8.3-.453,1.623-1.049,3.756-.005,5.241a3.982,3.982,0,0,0,3.152,1.45c.014,0,.028,0,.04,0" transform="translate(-40.983 -20.917)" fill="#1a1a1a"/>
            <path id="Trazado_5601" data-name="Trazado 5601" d="M350.174,169.53c.623-.46.575-.8.334-.99l-3.166-2.411,4.4-4a.551.551,0,0,0-.74-.816l-4.89,4.442c.037.844,3.726,3.66,3.726,3.66a.566.566,0,0,0,.334.115" transform="translate(-45.451 -21.165)" fill="#1a1a1a"/>
            <path id="Trazado_5602" data-name="Trazado 5602" d="M318.253,203.529c.355-.132,4.71-3.826,4.71-3.826a.55.55,0,0,0-.713-.838l-4.354,3.692a.552.552,0,0,0,.357.972" transform="translate(-41.72 -26.098)" fill="#1a1a1a"/>
            <path id="Trazado_5603" data-name="Trazado 5603" d="M331.66,205.548c6.424,0,17.432-9.509,17.909-9.923a.551.551,0,0,0-.724-.832c-.116.1-11.652,10.047-17.567,9.639-5.608-.437-5.653-5.358-5.653-5.568a.55.55,0,1,0-1.1-.006,6.812,6.812,0,0,0,6.666,6.672c.155.012.309.018.469.018" transform="translate(-42.616 -25.562)" fill="#1a1a1a"/>
            <path id="Trazado_5604" data-name="Trazado 5604" d="M319.477,175.247a11.365,11.365,0,0,1,3.419-.288.549.549,0,1,0,.044-1.1,9.982,9.982,0,0,0-3.66.318.552.552,0,0,0,.2,1.067" transform="translate(-41.881 -22.829)" fill="#1a1a1a"/>
            <path id="Trazado_5605" data-name="Trazado 5605" d="M176.778,335.887c.629-.509.553-.851.3-1.016-2.08-1.331-4.391-2.649-4.413-2.662l-3.959-1.573a.556.556,0,0,0-.713.308.55.55,0,0,0,.308.716l3.888,1.538c-.012,0,2.255,1.3,4.295,2.6a.567.567,0,0,0,.3.088" transform="translate(-22.055 -43.414)" fill="#1a1a1a"/>
            <path id="Trazado_5606" data-name="Trazado 5606" d="M191.71,312.079c.593-.367.613-.7.4-.912a26.959,26.959,0,0,0-3.908-2.358c-1.6-.68-4.394-.2-8.512,1.466L177.7,309.5a.55.55,0,0,0-.4,1.026l2.189.854c5.254-1.984,7.366-1.936,8.282-1.559a24.658,24.658,0,0,1,3.58,2.156,1.54,1.54,0,0,0,.354.1" transform="translate(-23.237 -40.513)" fill="#1a1a1a"/>
            <path id="Trazado_5607" data-name="Trazado 5607" d="M189.746,345.1a4.945,4.945,0,0,1-2-1.253c-.67.17-2.1.365-4.456-1.284a5.265,5.265,0,0,1-2.246-2.765,5.162,5.162,0,0,1-2.9-1.86,3.494,3.494,0,0,1-.573-3.509c.738-2.443,4.566-5.86,6.691-6.886a3.157,3.157,0,0,1,3.812.5,3.11,3.11,0,0,1,1.137,2.317,3.4,3.4,0,0,1,3.423.449,3.513,3.513,0,0,1,1.34,2.657,3.087,3.087,0,0,1,3.012.08,3.832,3.832,0,0,1,1.333,4.236,14.779,14.779,0,0,1-4.089,6.234,4.588,4.588,0,0,1-3.111,1.324,4.074,4.074,0,0,1-1.366-.235m3.114-10.706c0-.018.239-1.913-.866-2.689-1.144-.8-1.73-.725-3.958-.608a2.181,2.181,0,0,0-.676-2.213,2.076,2.076,0,0,0-2.628-.348c-1.914.925-5.49,4.14-6.113,6.211a2.391,2.391,0,0,0,.362,2.485,3.7,3.7,0,0,0,2.525,1.519.561.561,0,0,1,.55.527c0,.012.094,1.148,1.86,2.387,2.481,1.73,3.726,1.055,3.728,1.055a.56.56,0,0,1,.748.182,3.365,3.365,0,0,0,1.717,1.161,3.1,3.1,0,0,0,1,.173,3.473,3.473,0,0,0,2.335-1,13.767,13.767,0,0,0,3.818-5.8,2.738,2.738,0,0,0-.926-2.994,1.405,1.405,0,0,0-.843-.27c-.888,0-1.72.707-2.636.222" transform="translate(-23.287 -42.957)" fill="#1a1a1a"/>
            <path id="Trazado_5608" data-name="Trazado 5608" d="M215.907,333.922a5.732,5.732,0,0,0,2.545-2.253l5.454-2.354a.552.552,0,0,0-.439-1.013l-5.64,2.438a6.39,6.39,0,0,1-2.188,2.151.551.551,0,0,0,.268,1.032" transform="translate(-28.28 -43.106)" fill="#1a1a1a"/>
            <path id="Trazado_5609" data-name="Trazado 5609" d="M184.848,323.121a13.55,13.55,0,0,0,9.449-4.667c.934.923,3.278,2.9,5.7,2.581a.549.549,0,0,0,.473-.617.559.559,0,0,0-.618-.473c-2.537.347-5.128-2.632-5.154-2.66-4.126,3.778-8.007,4.914-10.327,4.719a3.074,3.074,0,0,1-2.458-1.161c.165-1.327,10.6-9.441,14.356-11.018,2.539-1.052,9.981,2.341,12.636,3.741a31.786,31.786,0,0,0,4.177-2.047.55.55,0,1,0-.536-.96l-3.394,1.9c-1.82-.942-10.045-5.022-13.309-3.642-3.013,1.261-14.14,9.278-14.933,11.773a.985.985,0,0,0,.07.842,4.113,4.113,0,0,0,3.306,1.672c.178.016.365.022.56.022" transform="translate(-23.749 -40.516)" fill="#1a1a1a"/>
            <path id="Trazado_5610" data-name="Trazado 5610" d="M227.632,322.6c.479-.114,33.3-9.447,47.266-24.3a.551.551,0,0,0-.8-.754c-12.85,13.671-42.091,22.645-46.143,23.841l-13.126-31.353c4.032-1.8,29.85-13.478,39.187-21.147,4.984-4.094,9.7-12.586,15.151-22.422,8.717-15.718,19.566-35.28,35.637-42.419a.55.55,0,1,0-.447-1.006c-16.408,7.292-27.356,27.03-36.154,42.894-5.4,9.735-10.065,18.142-14.886,22.1-9.809,8.054-39.13,21.081-39.426,21.21a.554.554,0,0,0-.283.717l13.521,32.3a.551.551,0,0,0,.507.339" transform="translate(-28.045 -26.656)" fill="#1a1a1a"/>
            <path id="Trazado_5611" data-name="Trazado 5611" d="M282.331,325.58a.55.55,0,0,0,.549-.527c.337-7.643.753-15.542,1.267-24.148,1.359-22.66,9.29-55.9,9.37-56.235a.55.55,0,1,0-1.07-.258c-.082.336-8.034,33.67-9.4,56.427-.517,8.612-.929,16.515-1.268,24.166a.548.548,0,0,0,.526.572.059.059,0,0,0,.024,0" transform="translate(-37.003 -32.041)" fill="#1a1a1a"/>
            <path id="Trazado_5612" data-name="Trazado 5612" d="M400.934,320.208a.551.551,0,0,0,.55-.533c.825-26.317,1.689-61.075,1.106-77.22-.539-14.922-11.95-34.183-42.339-39.366a.551.551,0,0,0-.187,1.086c29.74,5.071,40.9,23.811,41.425,38.321.582,16.112-.279,50.844-1.106,77.143a.554.554,0,0,0,.532.569Z" transform="translate(-47.223 -26.668)" fill="#1a1a1a"/>
            <path id="Trazado_5613" data-name="Trazado 5613" d="M368.045,326.251a.553.553,0,0,0,.551-.524c1.3-26.909,2.636-62.722,2.636-76.079a.55.55,0,1,0-1.1,0c0,13.341-1.339,49.132-2.637,76.025a.55.55,0,0,0,.525.574.067.067,0,0,0,.026,0" transform="translate(-48.259 -32.711)" fill="#1a1a1a"/>
            <path id="Trazado_5614" data-name="Trazado 5614" d="M182.056,340.4c.414-.188,7.471-8.238,7.471-8.238a.55.55,0,0,0-.827-.725l-7.056,8.047a.55.55,0,0,0,.051.777.543.543,0,0,0,.361.138" transform="translate(-23.835 -43.499)" fill="#1a1a1a"/>
            <path id="Trazado_5615" data-name="Trazado 5615" d="M189.443,344.772c.466-.258,5.947-8.98,5.947-8.98a.551.551,0,0,0-.932-.587l-5.481,8.722a.55.55,0,0,0,.175.759.517.517,0,0,0,.291.086" transform="translate(-24.805 -43.985)" fill="#1a1a1a"/>
            <path id="Trazado_5616" data-name="Trazado 5616" d="M203.748,345.017a4.315,4.315,0,0,0,3.344-1.293,3.22,3.22,0,0,0,.735-2.385,3.769,3.769,0,0,0,2.754-1.346,3.641,3.641,0,0,0,.421-3.719,4.088,4.088,0,0,0,2.147-1.236,3.479,3.479,0,0,0,.493-3.6c-1.564-2.562-9.386-8.615-11.434-9.708a.55.55,0,1,0-.518.971c2.177,1.163,9.635,7.052,11.011,9.309a2.466,2.466,0,0,1-.4,2.322,3.523,3.523,0,0,1-2.163.976c.276,2.033.271,3.021-.457,4.045-.714,1-2.493.916-2.511.91-.518.812-.129,1.75-.943,2.778a3.517,3.517,0,0,1-3,.85c-1.485-.144-2.821-.571-6.221-1.976a.554.554,0,0,0-.718.3.549.549,0,0,0,.3.718c3.516,1.454,4.92,1.894,6.532,2.054.217.021.427.03.632.03" transform="translate(-25.77 -42.241)" fill="#1a1a1a"/>
            <path id="Trazado_5617" data-name="Trazado 5617" d="M210.171,336.9c.621-.457.577-.8.337-.988l-13.4-10.395a.55.55,0,1,0-.675.87l13.4,10.395a.545.545,0,0,0,.337.118" transform="translate(-25.768 -42.731)" fill="#1a1a1a"/>
            <path id="Trazado_5618" data-name="Trazado 5618" d="M207.663,343.58c.629-.541.537-.877.273-1.028l-6.865-3.92a.549.549,0,0,0-.546.953l6.868,3.92a.513.513,0,0,0,.271.075" transform="translate(-26.296 -44.459)" fill="#1a1a1a"/>
            <path id="Trazado_5619" data-name="Trazado 5619" d="M133.659,336.652c.53-.213.627-.549.481-.816a30.537,30.537,0,0,1-2.219-5.075l-.8-2.107a.563.563,0,0,0-.711-.321.554.554,0,0,0-.318.71l.8,2.106a31.107,31.107,0,0,0,2.285,5.214.549.549,0,0,0,.483.288" transform="translate(-17.079 -43.112)" fill="#1a1a1a"/>
            <path id="Trazado_5620" data-name="Trazado 5620" d="M52.131,326.852a.552.552,0,0,0,.543-.455l4.814-27.01c-.228-1.952-5.648-43.866-5.851-45.241a.551.551,0,1,0-1.089.162c.2,1.334,5.563,42.812,5.842,44.971l-4.8,26.926a.549.549,0,0,0,.446.638.517.517,0,0,0,.1.01" transform="translate(-6.637 -33.313)" fill="#1a1a1a"/>
            <path id="Trazado_5621" data-name="Trazado 5621" d="M154.271,322.948c7.94-11.327,12.01-26.174,12.049-26.325a.547.547,0,0,0-.361-.667l-16.816-5.426c-8.731-2.824-17.757-5.74-26.688-8.464-4.241-1.289-9.052-3.186-12.575-7.479a55.343,55.343,0,0,1-6.018-9.9c-.38-.738-.76-1.475-1.147-2.206-3.126-5.92-16.726-29.342-20.584-34.857a.55.55,0,0,0-.9.628c3.841,5.5,17.4,28.836,20.513,34.745.386.729.764,1.46,1.142,2.2a56.37,56.37,0,0,0,6.145,10.091c3.71,4.521,8.707,6.5,13.106,7.836,8.92,2.718,17.943,5.636,26.671,8.456l16.309,5.263c-.77,2.652-4.612,15.2-11.094,24.942-2.329-.493-15.5-3.309-29.708-6.72a.552.552,0,0,0-.258,1.074c15.613,3.744,29.96,6.771,30.1,6.8a.771.771,0,0,0,.114.012" transform="translate(-10.654 -29.86)" fill="#1a1a1a"/>
            <path id="Trazado_5622" data-name="Trazado 5622" d="M138.605,163.647c.271-.01,25.723-.876,25.569-20.658a.55.55,0,1,0-1.1.006c.116,14.861-15.258,18.446-21.7,19.293,11.328-6.833,6.386-19.372,6.328-19.5a.55.55,0,1,0-1.018.414c.221.547,5.281,13.449-8.3,19.393-.261.876-.037,1.055.221,1.055" transform="translate(-18.157 -18.705)" fill="#1a1a1a"/>
            <path id="Trazado_5623" data-name="Trazado 5623" d="M167.595,143.542h32.88a.551.551,0,0,0,0-1.1h-32.88a.551.551,0,0,0,0,1.1" transform="translate(-21.936 -18.705)" fill="#1a1a1a"/>
            <path id="Trazado_5624" data-name="Trazado 5624" d="M146.748,134.612a.551.551,0,0,0,0-1.1,12.3,12.3,0,0,1-12.285-12.284v-33.4a12.3,12.3,0,0,1,12.285-12.284h61.569A12.3,12.3,0,0,1,220.6,87.823v26.755a.549.549,0,1,0,1.1,0V87.823a13.4,13.4,0,0,0-13.385-13.388H146.748a13.4,13.4,0,0,0-13.385,13.388v33.4a13.4,13.4,0,0,0,13.385,13.386" transform="translate(-17.513 -9.775)" fill="#1a1a1a"/>
            <path id="Trazado_5625" data-name="Trazado 5625" d="M272.631,185.464a11.878,11.878,0,0,1-5.763-15.026.55.55,0,1,0-1.018-.414c-.04.1-3.542,8.973,4.151,14.092-4.977-.711-15.175-3.442-15.091-13.882a.55.55,0,1,0-1.1-.006c-.117,14.591,18.618,15.231,18.807,15.237Z" transform="translate(-33.33 -22.282)" fill="#1a1a1a"/>
            <path id="Trazado_5626" data-name="Trazado 5626" d="M214.82,164.26h32.974a.552.552,0,0,0,0-1.1H214.82A8.832,8.832,0,0,1,206,154.331v-24.4a8.831,8.831,0,0,1,8.823-8.821h44.97a8.833,8.833,0,0,1,8.825,8.821v24.4a8.834,8.834,0,0,1-8.825,8.825.552.552,0,0,0,0,1.1,9.939,9.939,0,0,0,9.924-9.929v-24.4a9.936,9.936,0,0,0-9.924-9.924H214.82a9.936,9.936,0,0,0-9.924,9.924v24.4a9.939,9.939,0,0,0,9.924,9.929" transform="translate(-26.907 -15.76)" fill="#1a1a1a"/>
            <path id="Trazado_5627" data-name="Trazado 5627" d="M98.762,197.933c.279,0,.561-.01.846-.036,3.519-.321,3.267-5.76,3.255-5.992l.86-4.227a.548.548,0,0,0-.432-.646.554.554,0,0,0-.647.432l-.871,4.363c-.008.182.2,4.748-2.264,4.974a11.343,11.343,0,0,1-5.54-1.1.558.558,0,0,0-.739.242.552.552,0,0,0,.241.741,12.923,12.923,0,0,0,5.291,1.251" transform="translate(-12.235 -24.56)" fill="#1a1a1a"/>
            <path id="Trazado_5628" data-name="Trazado 5628" d="M143.674,337.016a.563.563,0,0,0,.546-.618l-.568-4.667a.55.55,0,0,0-1.092.132l.569,4.667a.552.552,0,0,0,.546.486" transform="translate(-18.72 -43.499)" fill="#1a1a1a"/>
            <path id="Trazado_5629" data-name="Trazado 5629" d="M149.277,99.7h60.694a.551.551,0,0,0,0-1.1H149.277a.551.551,0,0,0,0,1.1" transform="translate(-19.531 -12.948)" fill="#1a1a1a"/>
            <path id="Trazado_5630" data-name="Trazado 5630" d="M149.277,118.974h44.642a.551.551,0,0,0,0-1.1H149.277a.551.551,0,0,0,0,1.1" transform="translate(-19.531 -15.479)" fill="#1a1a1a"/>
            <path id="Trazado_5631" data-name="Trazado 5631" d="M216.645,138.173H258.02a.551.551,0,0,0,0-1.1H216.645a.551.551,0,0,0,0,1.1" transform="translate(-28.377 -18)" fill="#1a1a1a"/>
            <path id="Trazado_5632" data-name="Trazado 5632" d="M216.645,152.881H258.02a.552.552,0,0,0,0-1.1H216.645a.552.552,0,0,0,0,1.1" transform="translate(-28.377 -19.931)" fill="#1a1a1a"/>
          </g>
        </g>
      </g>
    </g>
    <g id="Grupo_11551" data-name="Grupo 11551" transform="translate(-679.179 2011.594)">
      <path id="Trazado_6536" data-name="Trazado 6536" d="M283.41,168.481c-.471-.194-7.8-7.518-7.8-7.518a.663.663,0,0,1,0-.941.672.672,0,0,1,.944,0l7.323,7.323a.665.665,0,0,1-.471,1.136" transform="translate(699.789 3343.621)" fill="#1a1a1a"/>
      <path id="Trazado_6537" data-name="Trazado 6537" d="M276.1,168.481c-.732-.456-.732-.876-.472-1.136l7.326-7.323a.671.671,0,0,1,.942,0,.663.663,0,0,1,0,.941l-7.323,7.324a.671.671,0,0,1-.473.194" transform="translate(699.777 3343.621)" fill="#1a1a1a"/>
      <path id="Trazado_6538" data-name="Trazado 6538" d="M296.811,153.676a2.757,2.757,0,1,1,2.76-2.758,2.762,2.762,0,0,1-2.76,2.758m0-4.184a1.426,1.426,0,1,0,1.425,1.426,1.427,1.427,0,0,0-1.425-1.426" transform="translate(695.079 3346.57)" fill="#1a1a1a"/>
    </g>
  </g>
</svg>
