<svg id="Capa_1" data-name="Capa 1" xmlns="http://www.w3.org/2000/svg" xmlns:xlink="http://www.w3.org/1999/xlink" viewBox="0 0 1251 864"><defs><style>.cls-1{opacity:0.07;fill:url(#Degradado_sin_nombre_26);}.cls-2{fill:#b3b3b3;}.cls-3{fill:#303030;}.cls-4{fill:#fff;}.cls-10,.cls-11,.cls-12,.cls-5,.cls-9{opacity:0.53;}.cls-5{fill:url(#Degradado_sin_nombre_26-2);}.cls-13,.cls-14,.cls-17,.cls-6{opacity:0.5;}.cls-6{fill:url(#Degradado_sin_nombre_47);}.cls-7{fill:#1a1a1a;}.cls-8{fill:#ccc;}.cls-9{fill:url(#Degradado_sin_nombre_26-3);}.cls-10{fill:url(#Degradado_sin_nombre_26-4);}.cls-11{fill:url(#Degradado_sin_nombre_26-5);}.cls-12{fill:url(#Degradado_sin_nombre_26-6);}.cls-13{fill:url(#Degradado_sin_nombre_66);}.cls-14{fill:url(#Degradado_sin_nombre_66-2);}.cls-15{fill:#29485a;}.cls-16{fill:#3a3a3a;}.cls-17{fill:url(#Degradado_sin_nombre_66-3);}</style><linearGradient id="Degradado_sin_nombre_26" x1="-4189.27" y1="835.18" x2="-4189.27" y2="833.69" gradientTransform="matrix(709.12, 0, 0, -501.68, 2971301.07, 419016.51)" gradientUnits="userSpaceOnUse"><stop offset="0" stop-color="#1a65bc"/><stop offset="0.3" stop-color="#0f76d2"/><stop offset="0.69" stop-color="#0488e9"/><stop offset="0.94" stop-color="#008ff2"/></linearGradient><linearGradient id="Degradado_sin_nombre_26-2" x1="806.93" y1="751.68" x2="888.43" y2="751.68" gradientTransform="matrix(1, 0, 0, 1, 0, 0)" xlink:href="#Degradado_sin_nombre_26"/><linearGradient id="Degradado_sin_nombre_47" x1="882.6" y1="596" x2="1183.66" y2="596" gradientUnits="userSpaceOnUse"><stop offset="0" stop-color="#d109c8"/><stop offset="1" stop-color="#f40019"/></linearGradient><linearGradient id="Degradado_sin_nombre_26-3" x1="150.56" y1="745.33" x2="369.2" y2="745.33" gradientTransform="matrix(1, 0, 0, 1, 0, 0)" xlink:href="#Degradado_sin_nombre_26"/><linearGradient id="Degradado_sin_nombre_26-4" x1="521.98" y1="380.98" x2="612.4" y2="380.98" gradientTransform="matrix(1, 0, 0, 1, 0, 0)" xlink:href="#Degradado_sin_nombre_26"/><linearGradient id="Degradado_sin_nombre_26-5" x1="496.5" y1="468.33" x2="546.91" y2="468.33" gradientTransform="matrix(1, 0, 0, 1, 0, 0)" xlink:href="#Degradado_sin_nombre_26"/><linearGradient id="Degradado_sin_nombre_26-6" x1="589.26" y1="468.78" x2="638.77" y2="468.78" gradientTransform="matrix(1, 0, 0, 1, 0, 0)" xlink:href="#Degradado_sin_nombre_26"/><linearGradient id="Degradado_sin_nombre_66" x1="273.62" y1="345.15" x2="417.33" y2="345.15" gradientUnits="userSpaceOnUse"><stop offset="0" stop-color="#ff5a00"/><stop offset="1" stop-color="#ffbe00"/></linearGradient><linearGradient id="Degradado_sin_nombre_66-2" x1="338.82" y1="446.35" x2="384.2" y2="446.35" xlink:href="#Degradado_sin_nombre_66"/><linearGradient id="Degradado_sin_nombre_66-3" x1="424.72" y1="675.18" x2="708.93" y2="675.18" xlink:href="#Degradado_sin_nombre_66"/></defs><path id="Trazado_509" data-name="Trazado 509" class="cls-1" d="M145.69,772S13.21,633.74,97.58,471.16s197.58-80.77,192.17-270S550.25-4.31,634.87,50.6,727,140.87,901.7,119.06s256,139.29,198.58,251.06C1033.2,500.68,1237.53,509.37,1084,768.36Z"/><path class="cls-2" d="M187.62,274.61a3.39,3.39,0,0,1-3-1.84l-13.68-26.6a3.39,3.39,0,0,1,6-3.11l13.68,26.61a3.39,3.39,0,0,1-3,4.94Z"/><path class="cls-2" d="M167.48,268.15a3.39,3.39,0,0,1-1.55-6.4l26.59-13.69a3.39,3.39,0,0,1,3.1,6L169,267.78A3.46,3.46,0,0,1,167.48,268.15Z"/><path class="cls-3" d="M191.88,274.1a3.39,3.39,0,0,1-3-1.84l-13.68-26.61a3.39,3.39,0,0,1,6-3.1l13.68,26.61a3.38,3.38,0,0,1-1.46,4.56A3.35,3.35,0,0,1,191.88,274.1Z"/><path class="cls-3" d="M171.75,267.64a3.39,3.39,0,0,1-1.56-6.41l26.59-13.68a3.39,3.39,0,1,1,3.11,6l-26.6,13.68A3.28,3.28,0,0,1,171.75,267.64Z"/><path class="cls-2" d="M778,95.65a2.62,2.62,0,0,1-2.33-1.42L765.05,73.68a2.62,2.62,0,0,1,4.66-2.4l10.56,20.55a2.62,2.62,0,0,1-1.13,3.53A2.55,2.55,0,0,1,778,95.65Z"/><path class="cls-2" d="M762.39,90.66a2.62,2.62,0,0,1-1.2-5l20.54-10.57a2.62,2.62,0,0,1,2.4,4.66L763.59,90.37A2.56,2.56,0,0,1,762.39,90.66Z"/><path class="cls-3" d="M781.24,95.25a2.6,2.6,0,0,1-2.33-1.42L768.34,73.28a2.62,2.62,0,1,1,4.66-2.4l10.57,20.56a2.62,2.62,0,0,1-2.33,3.81Z"/><path class="cls-3" d="M765.69,90.26a2.6,2.6,0,0,1-2.33-1.42,2.62,2.62,0,0,1,1.13-3.53L785,74.74a2.62,2.62,0,0,1,2.39,4.66L766.88,90A2.55,2.55,0,0,1,765.69,90.26Z"/><rect class="cls-4" x="359.94" y="165.81" width="459.05" height="278.73" rx="6.1"/><path class="cls-5" d="M862.69,722.75v-2.91s-6.78-4.24-29.43-4.24-26.33,5.25-26.33,5.25v63.28s7.42,3.64,27.73,3.64,27.62-3.68,27.62-3.68l1.05-10.34s25.1-2.42,25.1-25.33S874.13,725,862.69,722.75Zm.38,42.1V732s16-2.13,16.74,11.7C880.65,759.77,863.07,764.85,863.07,764.85Z"/><path class="cls-6" d="M1026,423.38s-46.5,3.62-78.36,37.13S892,554.67,889.26,563.14,869.35,613.79,904,635.85c0,0,14.58,6.78,46.78,9.75,0,0,0,46.91-1.71,69.15s-6.5,55.65-6.5,55.65h217.77s2-50.77,1.76-74.12-.8-48.75-.8-48.75,23.39-19,22.34-46.48-5.58-67.27-16.38-99.85-25.46-57.1-51.86-68.6c-21.26-9.25-45.47-11-45.47-11Z"/><path class="cls-7" d="M543.61,492.14s-46,2.38-66,12.91-43.67,17-63.23,64.84-21.73,56.68-25,73-8.78,47.45-6,68.21,9.95,45,35.32,55.08a62.47,62.47,0,0,0,22,4.22c11.48-.16,261.5,0,261.5,0s13.49-4.12,18.08-7.37a57.91,57.91,0,0,0,21.87-31c4.91-17.71,4.47-38.66,3.62-47.68s-3.39-29.64-7-43.95-14.54-49.58-20.53-62.93-15.93-35.53-26.79-47-32-24.62-45.43-28.79-34.65-9.55-54.1-9.52S543.61,492.14,543.61,492.14Z"/><rect class="cls-4" x="424.72" y="579.89" width="284.21" height="190.59" rx="17.42"/><path class="cls-8" d="M210.9,697.5s-4.5-.34-5,2.9,3.12,3.57,10.38,3.92,143.27-.16,143.27-.16,9.18-4.18,9.39-10.13.28-31.23.28-31.23-2.25-9.9-12-11.11-147.82-.23-147.82-.23-3.38,1.79-3.51,3.9,5,3.21,5,3.21Z"/><path class="cls-9" d="M363.33,715.57l4-1.35,1.81-3.62-1.34-4.45-5.36-2.64L166.77,704.6s-14.22,5.13-15.58,15.85-.11,48.06-.11,48.06,2.9,16.86,16.21,18.11,197.35-.13,197.35-.13,5.26-2.42,4.48-6.91-7-4.85-7-4.85Z"/><path class="cls-4" d="M541.21,501.48s2.28-9.27,3.18-15.45,1.83-20.59,1.83-20.59-12.83-7.56-14-25.21c-1.15-1.38-19.11,5.52-22-12.76s18.18-15.76,20.49-14l0-9.87s13.15-3.92,22.17-11.85,14.61-18.91,14.61-18.91,6.38,14.06,16.77,20.55a127.39,127.39,0,0,0,20.24,10.21l0,9.87s19-6.39,20.72,11.86c0,0,.85,13.27-8.94,14.14s-12.52-.51-12.52-.51-2.77,16.91-14.54,26.52c0,0,1.46,23.78,3.26,29.55,0,0,3.55,6.64,1.56,10.74s-10.11,14-26.57,13.11-22.51-8.39-23.9-9.68S541.21,501.48,541.21,501.48Z"/><polygon class="cls-4" points="210.9 697.5 210.9 658.57 355.38 658.57 359.84 661 360.93 664.79 360.93 692.67 358.54 696.25 354.57 697.49 210.9 697.5"/><polygon class="cls-4" points="162.03 724.07 163.3 719.62 167.32 716.2 172.48 715.57 362.42 715.57 362.42 775.65 167.81 775.65 163.33 771.65 162.06 767.84 162.03 724.07"/><path class="cls-10" d="M524.41,410.6s-4.25-22.48-1.5-34.38,10.45-26.89,43.86-27.69c0,0,21.75.53,32,8.34s14.58,17.92,13.48,31.31S610.14,412,610.14,412l-5.6,1.48,0-9.87s-26.81-6.9-37-30.76c0,0-11.32,26.25-36.78,30.76l-.79,9.5Z"/><path class="cls-11" d="M526.69,441.17s4.58,24.86-5.16,32.57-24.81,16.71-25,24c0,0,16.39-2.87,25.51-3.8s21.6-1.81,21.6-1.81l3.3-26.26s-14.13-9.25-14.92-27Z"/><path class="cls-12" d="M608.53,440.23s-3.06,12.84-.52,23.1,10.73,15,16.15,18.72,12.4,7.93,14.61,16.59c0,0-21.73-4.72-34.31-5.61l-12.58-.89-2.62-26.7s12.12-8.29,14.54-26.52Z"/><path class="cls-13" d="M417.33,345.15a71.86,71.86,0,1,1-71.85-71.86A71.85,71.85,0,0,1,417.33,345.15Z"/><path class="cls-14" d="M338.82,424.62v28s.83,15.45,20.15,15.45,23.51-10.89,23.51-10.89l1.72-32.56a53.24,53.24,0,0,1-22.69,3.53A122.27,122.27,0,0,1,338.82,424.62Z"/><rect class="cls-15" x="720.65" y="164.42" width="234.63" height="154.91" rx="7.67"/><path class="cls-4" d="M855.17,198.58c-4.12-7.07-10.88-7.07-15,0l-31.71,54.31c-4.12,7.06-.8,12.85,7.38,12.85h63.71c8.18,0,11.5-5.78,7.38-12.85Z"/><path class="cls-8" d="M801.89,661.5s10.8,27.24,47.18,11.89c0,0-6.05,16.33-30.36,13.76C796.74,684.84,801.89,661.5,801.89,661.5Z"/><path class="cls-8" d="M812.43,571.81s6.58,5.91,15.88,0c0,0-2,7.19-7.27,7.77S812.43,571.81,812.43,571.81Z"/><path class="cls-4" d="M1002.92,539.62,973,525.68s-16.85-2.62-23.59,7.75c0,0-20,2.68-19.39,17.94,0,0,15-1.43,22.89,2.76s22,13.63,22,13.63S991,545.28,1002.92,539.62Z"/><path class="cls-4" d="M1053.44,561.34s6.09-13.48,21.93-5.07c0,0,7.94-7.54,23,0,0,0,9.2-4.79,16.47,1.82s14,17.76,14,17.76,3.37,12.45-9.86,13.23c-.51,1.3,1,10.9-11,11.48s-16.62-9.93-16.62-9.93-2,10.25-10.47,9.73-10.12-6.1-10.25-9.34,1.43-8.69.13-12.06S1060.9,562,1053.44,561.34Z"/><path class="cls-7" d="M1086,551.71a33.83,33.83,0,0,0-23.6-9.37c-14.65.17-20.22,14-20.22,14l11.23,5.75s3.59-7.14,8.17-8,12.76,2,12.76,2,6.2-5.18,12.63-3.89Z"/><path class="cls-4" d="M1067.08,381.09s18.74,8.42,22.22-9.92-19.71-15.6-19.71-15.6-26.68-17-34-21.58-19.37-16.44-19.37-16.44l-9.52,48.89s-8.32,37.86,20.06,38.9l-.79,18s-13,36.38,4.41,36.53,38.17-34.11,38.38-36.19.65-40.47.65-40.47Z"/><path class="cls-7" d="M1135.78,444.41s4.82-14.4-4.68-22.8-26-11.15-28.22-22.75,7-30.42,13.91-46,6.5-31.87-4.38-38.49-29.14-14.5-36.68-14.38c0,0-15.91-12.77-32.6-10.9s-28.84,3.28-35.78,16.41-6.14,30.08,1.85,44.51l7-33.51s27.14,29.19,53.19,38.22c0,0,7.73-.14,11.88,1.25s9.6,7.84,7.74,16.28-11.62,13.56-19.62,11l.38,37.21s21.88,1.9,35.53,7.61S1135.78,444.41,1135.78,444.41Z"/><path class="cls-16" d="M1017.42,404.4s-8.95,11-.79,20.36l9.37-1.38,1.38-17.27Z"/><path class="cls-4" d="M1016.25,316.51s26,27.95,51.52,37.6c-7.43-6-35.6-29.36-41-42.39s10.2-20.63,14.39-22.4c-15.68,1.77-27.16,3.58-33.83,16.19-6.93,13.12-6.14,30.08,1.85,44.51Z"/><path class="cls-4" d="M1017.42,404.4s-8.95,11-.79,20.36L1022,424c-4-5.59-.86-16.61-.18-18.81Z"/><path class="cls-4" d="M598.75,356.87c-4-3-9.65-4.95-15.13-6.18.24.11,15.38,6.8,15.72,23.44s-30.6-1.33-30.6-1.33l.5,3.58c11.2,21,35.28,27.18,35.28,27.18l0,9.87,5.6-1.48s1-10.38,2.09-23.77S609,364.67,598.75,356.87Z"/><path class="cls-4" d="M638.77,498.64c-2.21-8.66-9.2-12.91-14.61-16.59s-13.61-8.46-16.15-18.72.52-23.1.52-23.1l-4.73-1.31a42.3,42.3,0,0,1-5.44,16c-.49,3.33-1.92,16.93,5.47,24.48,3.27,3.33,4.7,8.71,5.24,14.06C621.71,494.93,638.77,498.64,638.77,498.64Z"/><path class="cls-4" d="M1183.77,597.35s-22-10.11-42.89,7.79-24.13,42.69-11.68,55.58c0,0,26.82-3.93,40.58-22S1183.77,597.35,1183.77,597.35Z"/><path class="cls-7" d="M823.75,689.59c-14.44-.42-19.81-6.77-22-12-4.27-10.15-.11-23.51,6.37-30.57.15-.17,4.34-5.37.18-17.87-2.74-8.22-2.1-16.37,1.77-22.37,3.53-5.49,9.49-8.82,17.24-9.64a22.3,22.3,0,0,1,19.33,7.12c5,5.55,7.35,13.46,5.95,20.16-2.37,11.32-3,14.31,0,24,2,6.56,2.31,20.72-5.38,30.77C841.87,686.1,834,689.59,823.75,689.59Zm6.34-89.89a22,22,0,0,0-2.52.14c-6.89.72-12.16,3.62-15.23,8.39-3.41,5.3-3.94,12.6-1.48,20,4.78,14.34-.52,20.34-.75,20.59-5.77,6.28-9.66,18.64-5.87,27.65,2.74,6.49,9,10.06,18.18,10.34,10,.23,17.61-2.83,22.56-9.29,6.68-8.75,6.91-21.82,4.93-28.31-3.17-10.4-2.39-14.1-.32-24a22,22,0,0,0-5-19.17A19,19,0,0,0,830.09,599.7Z"/><path class="cls-7" d="M820.37,581c-5.39,0-9.61-6.13-9.61-14s4.22-14,9.61-14S830,559.2,830,567,825.75,581,820.37,581Zm0-25.18c-3.72,0-6.87,5.14-6.87,11.23s3.15,11.21,6.87,11.21,6.87-5.13,6.87-11.21S824.09,555.8,820.37,555.8Z"/><path class="cls-7" d="M1035.29,406.71c-2.83,0-5.55-.07-7.67-.16a30.83,30.83,0,0,1-11.86-2.46c-5.49-2.55-8.83-7.27-10.21-14.44-2.08-10.86-.48-21.9,1.06-32.58,1.22-8.47,8.12-40.45,8.37-41.06,2.33,1.92-4.36,32.49-5.44,39.94-1.73,12-3.29,22.78-1.3,33.18,1.2,6.25,4,10.33,8.66,12.47a28.39,28.39,0,0,0,10.85,2.22,157.91,157.91,0,0,0,15.83-.1C1041.21,406.64,1038.2,406.71,1035.29,406.71Z"/><path class="cls-7" d="M1070.39,356.94c-46.61-24.69-57.13-42-57.56-42.75,2.46-1.21,13.09,16.09,58.2,40.17C1071.35,356.68,1070.87,356.94,1070.39,356.94Z"/><path class="cls-7" d="M1046.14,348.3c-1.06-.31-1.84.06-2.66,3.93-.91,4.3.13,5.21,1.11,5.3s2.13-1.13,2.48-4.24S1047.53,348.7,1046.14,348.3Z"/><path class="cls-7" d="M1017.33,343.69c-1.05-.35-1.85,0-2.79,3.83-1.06,4.28-.06,5.23.92,5.34s2.17-1.06,2.63-4.16S1018.7,344.14,1017.33,343.69Z"/><path class="cls-7" d="M1012.61,335.36c1.14-3.76,4.3-5.17,9.87-2.92-5.31.81-7.53,1.64-9.11,2.69A1.43,1.43,0,0,1,1012.61,335.36Z"/><path class="cls-7" d="M1075.21,384.63a16.4,16.4,0,0,1-8.91-2.79c3.47-.92,5.72-.13,8.07,0,7.58,0,13.26-5.23,13.71-12a12.92,12.92,0,0,0-12-13.71,13.27,13.27,0,0,0-7.35,1.73c1.32-3.93,4.43-4.67,7.52-4.46a15.64,15.64,0,0,1-1,31.24Z"/><path class="cls-7" d="M1077.4,377.94c-1-.4-9.56-9-9.56-9,.29-2.16,11.83-8.61,11.83-8.61,1.34,2.39-8.62,8-8.62,8l7.31,7.31C1078.1,377.8,1077.75,377.94,1077.4,377.94Z"/><path class="cls-7" d="M1031.24,461.28a23.34,23.34,0,0,1-4.42-.42,7.67,7.67,0,0,1-5.37-3.91c-5.22-9.13,2.36-31.46,3.19-33.85l1.35-17.9c2.73.21,1.37,18.28,1.37,18.28-.15.59-8.32,23.75-3.54,32.12a5,5,0,0,0,3.53,2.57c23.58,4.56,40.19-35,40.36-35.39C1069.57,425.44,1054.6,461.28,1031.24,461.28Z"/><path class="cls-7" d="M1031.73,384.61a14.37,14.37,0,0,1-5.47-1.21c4-1.3,6.53-1.21,8.52-2.23,3.38-1.74,4.44-6.15,4.45-6.2,2.62.84,1.34,6.29-3.17,8.62A9.36,9.36,0,0,1,1031.73,384.61Z"/><path class="cls-7" d="M1069,424.67c-1.37-1.4-.43-41.06-.43-41.06,2.75.06,1.8,39.72,1.8,39.72A1.37,1.37,0,0,1,1069,424.67Z"/><path class="cls-7" d="M1017.65,372.54c-2.09-4.27-3.53-12-.83-14,1.65-1.26,5.11-.1,7.78,1.13l3.11-17.05c2.69.48-.74,19.32-.74,19.32-4.7-.45-7.86-1.47-8.54-1.2-.76.6-.52,5.55.55,10.16C1017.86,372.53,1017.75,372.54,1017.65,372.54Z"/><path class="cls-7" d="M544.36,443.06c-9.34,0-16.94-9.57-16.94-21.33s7.6-21.32,16.94-21.32,16.95,9.56,16.95,21.32a23.49,23.49,0,0,1-.65,5.81c-2.26-2.3-2.1-3.8-2.1-5.81,0-10.25-6.37-18.59-14.2-18.59s-14.2,8.34-14.2,18.59,6.37,18.59,14.2,18.59a11.92,11.92,0,0,0,9.82-5.19C553.26,440.88,549.11,443.06,544.36,443.06Z"/><path class="cls-7" d="M590.63,443.06c-9.33,0-16.94-9.57-16.94-21.33s7.61-21.32,16.94-21.32,17,9.56,17,21.32S600,443.06,590.63,443.06Zm0-39.92c-7.82,0-14.19,8.34-14.19,18.59s6.37,18.59,14.19,18.59,14.21-8.34,14.21-18.59S598.47,403.14,590.63,403.14Z"/><path class="cls-7" d="M574.5,423.08c-3.37-2.66-5.77-3.82-8-3.57a7.87,7.87,0,0,0-5,2.62c-2-1.83.54-5,4.81-5.35,3.11-.2,6.17,1.09,9.18,3.94C575.23,422.94,574.87,423.08,574.5,423.08Z"/><path class="cls-7" d="M690.16,771.84H443.49a20.16,20.16,0,0,1-20.14-20.14v-153a20.16,20.16,0,0,1,20.14-20.14H690.16a20.16,20.16,0,0,1,20.14,20.14v153A20.16,20.16,0,0,1,690.16,771.84ZM443.49,581.26a17.41,17.41,0,0,0-17.39,17.4v153a17.41,17.41,0,0,0,17.39,17.4H690.16a17.42,17.42,0,0,0,17.4-17.4v-153a17.42,17.42,0,0,0-17.4-17.4Z"/><path class="cls-7" d="M567.18,697.85a21.42,21.42,0,1,1,21.42-21.42A21.45,21.45,0,0,1,567.18,697.85Zm0-40.1a18.69,18.69,0,1,0,18.68,18.68A18.7,18.7,0,0,0,567.18,657.75Z"/><path class="cls-7" d="M691,771.77c24-2.73,40.25-13.67,48.25-35.25,22.58-60.89-26-185.71-50.89-207.14-32.12-27.61-57.7-33.74-96.53-35.87,39.59-.57,65.6,5.67,98.31,33.8,25.3,21.74,74.58,148.4,51.68,210.16C733.34,760.23,716.25,771.77,691,771.77Z"/><path class="cls-7" d="M444.29,771.84c-28.74,0-48-12.49-57.08-37.11-22.94-61.88,26.46-185.1,52.43-207.42C471.49,499.93,503,493,543.53,490.77c-39.81,5-70.85,11.74-102.1,38.61-25.59,22-74.27,143.42-51.65,204.4,8.69,23.44,27,35.32,54.51,35.32C445.66,771.23,445.05,771.84,444.29,771.84Z"/><path class="cls-7" d="M1103.9,555c-5-22.56-2-53.62-2-53.93,2.7.58-.26,31.28,3.35,52.33C1104.06,555,1104,555,1103.9,555Z"/><path class="cls-7" d="M1105.38,602.23a14.91,14.91,0,0,1-11.43-5.38c-2.74-3.13-4.21-7-4-8.31,2.36,1.17,5.81,11.32,15.46,11.32,5.2,0,8.59-1.31,10.16-3.79,3.22-5.06-1.06-14.31-3.63-19.84-.47-1-.88-1.91-1.18-2.63-2.34-5.67-5-12.09-13.74-16.44a26.31,26.31,0,0,0-22-.54c-.6-2.35,10.51-7.83,23.11-1.58,9.54,4.74,12.49,11.9,14.87,17.65.29.7.68,1.56,1.15,2.54,2.76,6,7.38,16,3.48,22.11-2,3.21-6.1,4.85-12.06,4.89Z"/><path class="cls-7" d="M1118.08,590.69c5.91-3.62,9.47-6,10.34-9.27,1.57-6-5.9-15.19-12.78-21.17-7.41-6.47-17.62-3.06-17.74-3-.3-2.39,10.82-6.14,19.3,1.24,3.76,3.27,15.84,14.63,13.51,23.56-1.11,4.26-5.28,7.17-12.39,8.65A1,1,0,0,1,1118.08,590.69Z"/><path class="cls-7" d="M1041.91,558.39c4.45-12.78,12.52-18,23.45-18,7.44,0,15,3.93,22.61,11.61-9-5.22-15.93-8.85-22.51-8.87-10.06,0-17.12,4.62-22.35,14.54A1.36,1.36,0,0,1,1041.91,558.39Z"/><path class="cls-7" d="M1094.53,665.6c-19.61,0-42.07-4.8-68.49-14.63a286,286,0,0,1-66.48-35.46c-.55-1.45,1.54-22.61,9.86-40.54a87.79,87.79,0,0,1,32.6-36.53c1.24-.07,56.77,24.57,56.77,24.57-1.11,2.5-56-21.85-56-21.85-3.42,2.15-21.14,14-30.89,35-7.24,15.59-9.65,33.7-10.11,37.63a283.56,283.56,0,0,0,65.2,34.66c28,10.43,51.6,15.16,71.78,14.38,12.26-.46,28.21-1.68,42.93-7.14,9.12-3.39,21.86-10,30.75-22.34,9.27-12.86,10.16-28.91,9.9-41.46-.53-25.68-6.1-50.9-10.91-70-1.94-7.76-4.14-15.74-6.55-23.71-14.39-47.68-45.48-72.27-95.07-75.17,51,.25,82.93,25.47,97.7,74.38,2.41,8,4.63,16,6.58,23.83,4.83,19.25,10.45,44.66,11,70.61.26,13-.68,29.6-10.43,43.12-9.29,12.89-22.54,19.79-32,23.3-15.08,5.6-31.31,6.85-43.78,7.32C1097.45,665.58,1096,665.6,1094.53,665.6Z"/><path class="cls-7" d="M962.66,647c-24.71,0-52.35-2.75-64.63-13.7-31.63-28.18-11.37-70.79,3.43-101.9.95-2,1.93-4.12,3-6.35,16.09-34.65,43.05-92.63,121.39-103.05-76.49,12.93-103,70.06-118.91,104.2-1,2.23-2,4.37-3,6.37-14.42,30.33-34.17,71.87-4.06,98.69,23.3,20.76,108.64,10.32,109.48,10.2C1007.93,644.42,986.67,647,962.66,647Z"/><path class="cls-7" d="M942.55,771.77a1.42,1.42,0,0,1-1.34-1.65c9.22-44.09,8.19-123.7,8.17-124.5,2.76.76,3.79,80.68-5.5,125.07A1.36,1.36,0,0,1,942.55,771.77Z"/><path class="cls-7" d="M1160.32,771.77c1.88-55.8-.38-123.51-.39-124.18,2.75.58,5,68.41,1.76,122.9A1.37,1.37,0,0,1,1160.32,771.77Z"/><path class="cls-7" d="M1010.86,544.31c25.26-3.58,54.29-3.93,54.58-3.94-.25,2.74-29.26,3.1-54.54,3.94Z"/><path class="cls-7" d="M896.89,596a1.42,1.42,0,0,1-1.34-1.65c7.8-37.55,33.3-43.15,34.38-43.37,25.32-5.66,45.09,15,45.91,15.86-2.19,1.68-21.59-18.51-45.33-13.18-.28.05-24.87,5.55-32.29,41.25A1.35,1.35,0,0,1,896.89,596Z"/><path class="cls-7" d="M930.2,553.68c-1.43-1.29-4.73-10.76,10.06-18.2,14.36-7.2,32,2.95,32.75,3.39-1.56,2.26-18.51-7.48-31.52-.93-12.5,6.27-10.11,13.6-10,13.91C930.51,553.65,930.35,553.68,930.2,553.68Z"/><path class="cls-7" d="M1002.7,541a109.36,109.36,0,0,0-28.28-13.1c-16.75-5.11-25.56,7.35-25.65,7.48-2.16-1.69,7.78-15.74,26.45-10.11,18,5.47,27.9,13,28.31,13.28C1003.52,540.8,1003.11,541,1002.7,541Z"/><path class="cls-7" d="M524.48,441.82c-5.16-.3-9-2.16-11.74-5.29a15.64,15.64,0,0,1,1.39-22.06,15.63,15.63,0,0,1,16.13-2.8,5.4,5.4,0,0,1-5,1.65,12.9,12.9,0,0,0-1.61,25.74,13.3,13.3,0,0,0,6.74-1.43C529.45,441.22,527,441.82,524.48,441.82Z"/><path class="cls-7" d="M521.33,434.79c-.84-2.44,7-8.46,7-8.46,1.67,2.16-6.13,8.18-6.13,8.18A1.34,1.34,0,0,1,521.33,434.79Z"/><path class="cls-7" d="M528.43,425.49c-.82-.27-8.92-6.26-8.92-6.26,1.64-2.2,9.73,3.79,9.73,3.79C529.26,425.29,528.84,425.49,528.43,425.49Z"/><path class="cls-7" d="M611,441.82a15.64,15.64,0,0,1-7.19-1.75c3.34-1.35,5.73-.92,8-1a12.9,12.9,0,0,0,7.72-22.54,12.66,12.66,0,0,0-9.34-3.2,13,13,0,0,0-4.23,1c.55-3.21,2.28-3.62,4.06-3.73a15.63,15.63,0,0,1,2,31.2Z"/><path class="cls-7" d="M614.17,434.79c-.84-.28-8.8-6.43-8.8-6.43,1.67-2.16,9.63,4,9.63,4C615,434.61,614.57,434.79,614.17,434.79Z"/><path class="cls-7" d="M606.51,425.9c-.82-2.47,7.85-8.87,7.85-8.87,1.63,2.2-7,8.6-7,8.6A1.39,1.39,0,0,1,606.51,425.9Z"/><path class="cls-7" d="M567.73,472.5c-6.86,0-16.68-1.31-24.52-7.54-6-4.79-10-12.5-12.22-23.55a70.45,70.45,0,0,1-.87-7.89,12.94,12.94,0,0,1,3.56,7.36c2.05,10.39,5.73,17.56,11.24,21.94,7.21,5.74,16.39,6.94,22.81,6.94C569.1,471.89,568.49,472.5,567.73,472.5Z"/><path class="cls-7" d="M531,413.21c-1.38-1.44-1.69-5.74-1.61-9.68a18.22,18.22,0,0,1,3,8.22C531,413.21,531,413.21,531,413.21Z"/><path class="cls-7" d="M530.73,404.93a67.25,67.25,0,0,0,35.52-32.66c2.11,2-7.91,25.09-35.16,32.61A1.49,1.49,0,0,1,530.73,404.93Z"/><path class="cls-7" d="M567.51,472.5c6.42-2.74,15.6-3.94,22.82-9.68,5.5-4.38,9.18-11.55,11.23-21.94a69.82,69.82,0,0,0,.91-8.64c2.47,4.38,2.16,7.24,1.79,9.17-2.19,11-6.19,18.76-12.23,23.55C584.2,471.19,574.37,472.5,567.51,472.5Z"/><path class="cls-7" d="M604.52,413.29a34.4,34.4,0,0,1-1.38-9.7c2.78,1.92,2.78,4.9,2.75,8.35A1.37,1.37,0,0,1,604.52,413.29Z"/><path class="cls-7" d="M604.52,404.93a60.43,60.43,0,0,1-38.27-31.59c2.61-.86,12.69,21.75,38.63,28.9C605.67,404.53,605.11,404.93,604.52,404.93Z"/><path class="cls-7" d="M568,520.21c-11,0-21.2-4.58-25.9-11.67-2.4-3.62-2.94-7.42-1.54-10.72,3.49-8.22,4.24-32.18,4.25-32.42,2.71,1.09,2,24.8-1.73,33.49-1,2.42-.57,5.31,1.31,8.14,3.44,5.2,12.07,10.44,23.61,10.44,11.05,0,19.52-3.22,23.23-8.84a10.18,10.18,0,0,0,1.09-9.74c-3.69-8.69-4.44-32.4-4.46-33.41,2.73.16,3.49,24.12,7,32.34a12.93,12.93,0,0,1-1.32,12.32C591.07,513.9,584.44,520.21,568,520.21Z"/><path class="cls-7" d="M609.86,412a1.41,1.41,0,0,1-1.36-1.58c3.15-20.14,3.16-30.41.06-39.23-5.47-15.56-24.8-21.18-41.07-21.26,17.22-2.66,37.71,3.45,43.66,20.35,3.27,9.3,3.29,19.91.06,40.57A1.37,1.37,0,0,1,609.86,412Z"/><path class="cls-7" d="M524.41,412c-4.57-21.81-4.56-32.42-1.29-41.72,5.94-16.9,26.44-23,43.64-23.09-16.26,2.82-35.59,8.44-41,24-3.11,8.82-3.1,19.09.06,39.23C524.55,412,524.48,412,524.41,412Z"/><path class="cls-7" d="M547.5,403.14c2.79-3.92,6.66-4.26,9.81-3.56-3.21,2.08-6.56,2.4-9.31,3.47A1.47,1.47,0,0,1,547.5,403.14Z"/><path class="cls-7" d="M589.88,403.14a15.62,15.62,0,0,0-9.45-.88c3-3.48,6.78-3.16,10-1.74C590.9,402.84,590.4,403.14,589.88,403.14Z"/><path class="cls-7" d="M569.64,453.48a21.17,21.17,0,0,1-6-.88c.9-2.59,7.56-.5,11.83-3.41,2.25-1.53,3.51-4.26,3.75-8.11,2.43,4.91.77,8.35-2.22,10.38A13,13,0,0,1,569.64,453.48Z"/><path class="cls-7" d="M558.1,440.28c-1.39-.77-5.61-4.67-5.74-8.71a5.25,5.25,0,0,1,1.56-3.95,5.9,5.9,0,0,1,4.32-1.89,8.77,8.77,0,0,1,4.66,1.58c.84-7.53,1.42-18.11-.11-20.42,5,2.67,3,19.79,2.53,23.18-3,.12-5.12-1.6-7.08-1.6a3.22,3.22,0,0,0-2.37,1.07,9.42,9.42,0,0,0,3.14,8.35C558.85,440.13,558.47,440.28,558.1,440.28Z"/><path class="cls-7" d="M862.71,766.3c.31-2.84,14.82-6.27,15.7-20.68.24-3.82-.74-6.8-2.88-8.85-4.43-4.24-12.52-3.43-12.57-3.42.09-2.77,9.11-3.66,14.45,1.44,2.76,2.63,4,6.33,3.73,11-1,16.48-18,20.44-18.13,20.48Z"/><path class="cls-7" d="M863.33,775.12c.9-2.84,25.34-5.57,23.65-29.15-.52-7.34-3-12.9-7.35-16.51-6.89-5.7-16.3-4.69-16.41-4.69.14-2.76,10.32-3.89,18.13,2.56,5,4.12,7.79,10.32,8.36,18.44,1.88,26.26-26,29.31-26.25,29.34Z"/><path class="cls-7" d="M834.65,789.14c-4.85,0-29.09-.28-29.09-5.78,4,1.14,14,3,29.09,3,15.56,0,25.69-2,26.75-3.33C864.06,788.86,839.56,789.14,834.65,789.14Z"/><path class="cls-7" d="M806.93,784.74c-1.37-1.38-1.37-63.89-1.37-63.89,2.75,0,2.75,62.51,2.75,62.51A1.38,1.38,0,0,1,806.93,784.74Z"/><path class="cls-7" d="M862.71,784.74c-1.37-1.38-1.37-64.35-1.37-64.35,2.74,0,2.74,63,2.74,63A1.37,1.37,0,0,1,862.71,784.74Z"/><path class="cls-7" d="M834.83,727.49c-1.2,0-29.27-.07-29.27-6.64s28.07-6.63,29.27-6.63,29.25.08,29.25,6.63S836,727.49,834.83,727.49Zm-26.48-6.64c1.13,1.46,10.54,3.9,26.48,3.9,16.35,0,25.82-2.57,26.53-4-.71-1.21-10.18-3.78-26.53-3.78C818.89,717,809.48,719.4,808.35,720.85Z"/><path class="cls-7" d="M1212.18,772H873.9c0-2.74,338.28-2.74,338.28-2.74C1213.56,771.4,1212.94,772,1212.18,772Z"/><path class="cls-7" d="M806.93,772h-444c0-2.74,444-2.74,444-2.74C808.31,771.4,807.69,772,806.93,772Z"/><path class="cls-7" d="M150.56,772H67c0-2.74,83.54-2.74,83.54-2.74C151.93,771.4,151.31,772,150.56,772Z"/><path class="cls-7" d="M292.57,102.64a6,6,0,1,0-6-6A6,6,0,0,0,292.57,102.64Z"/><path class="cls-7" d="M338.9,103a6.27,6.27,0,1,0-6.27-6.27A6.27,6.27,0,0,0,338.9,103Z"/><path class="cls-7" d="M385.23,102.49a5.81,5.81,0,1,0-5.8-5.81A5.81,5.81,0,0,0,385.23,102.49Z"/><path class="cls-7" d="M292.57,149.28A6.27,6.27,0,1,0,286.3,143,6.27,6.27,0,0,0,292.57,149.28Z"/><path class="cls-7" d="M338.9,149.59a6.58,6.58,0,1,0-6.58-6.58A6.58,6.58,0,0,0,338.9,149.59Z"/><path class="cls-7" d="M385.23,149.13a6.12,6.12,0,1,0-6.11-6.12A6.12,6.12,0,0,0,385.23,149.13Z"/><path class="cls-7" d="M292.57,195.15a5.81,5.81,0,1,0-5.81-5.81A5.81,5.81,0,0,0,292.57,195.15Z"/><path class="cls-7" d="M338.9,195.46a6.12,6.12,0,1,0-6.12-6.12A6.13,6.13,0,0,0,338.9,195.46Z"/><path class="cls-7" d="M385.23,195.05a5.71,5.71,0,1,0-5.7-5.71A5.71,5.71,0,0,0,385.23,195.05Z"/><path class="cls-7" d="M905.61,301.19H756a43.31,43.31,0,0,1-43.26-43.26V186.8A43.31,43.31,0,0,1,756,143.54H906.85a43.31,43.31,0,0,1,43.26,43.26v71.13a42,42,0,0,1-25.58,39c13.67-9,22.84-22.93,22.84-39V186.8a40.57,40.57,0,0,0-40.52-40.52H756a40.56,40.56,0,0,0-40.52,40.52v71.13A40.56,40.56,0,0,0,756,298.45H905.61C907,300.58,906.37,301.19,905.61,301.19Z"/><path class="cls-7" d="M863.45,260H799.74c-4.46,0-7.83-1.58-9.48-4.46s-1.32-6.58.92-10.44l31.71-54.31c2.25-3.86,5.34-6,8.69-6s6.44,2.12,8.69,6L872,245.06c2.25,3.86,2.59,7.57.93,10.44S867.92,260,863.45,260Zm-31.87-72.45c-2.34,0-4.59,1.64-6.32,4.62l-31.71,54.31c-1.74,3-2.07,5.71-.92,7.69s3.66,3.09,7.11,3.09h63.71c3.45,0,6-1.09,7.12-3.08s.81-4.73-.93-7.7L837.9,192.13C836.17,189.15,833.91,187.51,831.58,187.51Z"/><path class="cls-7" d="M363.84,469.43h-8.73a19.64,19.64,0,0,1-19.62-19.6V426c16,2,31.87,2,46.13-2.58,1.84,2.58,1.84,26.44,1.84,26.44A19.64,19.64,0,0,1,363.84,469.43Zm-25.6-42.95v23.35a16.89,16.89,0,0,0,16.87,16.87h8.73a16.89,16.89,0,0,0,16.87-16.87v-23.3A75.74,75.74,0,0,1,338.24,426.48Z"/><path class="cls-7" d="M359.56,429.55A75.13,75.13,0,1,1,382.45,426,74.74,74.74,0,0,1,359.56,429.55Zm0-147.6A72.44,72.44,0,1,0,432,354.38,72.52,72.52,0,0,0,359.56,282Z"/><path class="cls-7" d="M386.59,448.9H332.5c0-2.73,54.09-2.73,54.09-2.73C388,448.29,387.35,448.9,386.59,448.9Z"/><path class="cls-7" d="M386.59,462.5H332.5c0-2.74,54.09-2.74,54.09-2.74C388,461.88,387.35,462.5,386.59,462.5Z"/><path class="cls-7" d="M386.59,435.32H332.5c0-2.74,54.09-2.74,54.09-2.74C388,434.7,387.35,435.32,386.59,435.32Z"/><path class="cls-7" d="M386.59,448.9H332.5c0-2.73,54.09-2.73,54.09-2.73C388,448.29,387.35,448.9,386.59,448.9Z"/><path class="cls-7" d="M315.14,386.33c-.81,0-1.58,0-2.31-.05,4.5-2.55,10.78-2.72,14.89-6.32a15.77,15.77,0,0,0,2.46-2.72,22.62,22.62,0,0,1-4.86-4.65,21.87,21.87,0,0,1-4.27-16.22c.26-2,2.05-9.81,6.09-12a4.53,4.53,0,0,1,4.22-.11c2.73,1.28,3.78,5,4.47,7.51a34.91,34.91,0,0,1,1.44,10,33.2,33.2,0,0,1-3.34,14.57c5.77,3.18,13.71,4.63,24.4,4.33a46.73,46.73,0,0,0,15.36-2.64A25.42,25.42,0,0,0,386,368.67c-5.34-3-8.27-6.9-8.77-11a13.47,13.47,0,0,1,1.34-7.45c.89-1.88,2.51-4.3,5.23-5.15a5,5,0,0,1,4.74.68c3.62,2.68,3.76,10,3.76,11.41a23.47,23.47,0,0,1-2.4,10.29c7.21,2.82,15.93,3.09,24.34,3.09a38.59,38.59,0,0,1-25.71-.68,27.82,27.82,0,0,1-13.87,10.78,49.59,49.59,0,0,1-16.24,2.82c-11.14.24-19.68-1.27-25.9-4.73a18.63,18.63,0,0,1-3,3.33C325.39,385.64,319.72,386.33,315.14,386.33Zm14.19-39.82c-3.3,1.57-5.2,7.36-5.57,10.23a19.13,19.13,0,0,0,3.73,14.18,19.49,19.49,0,0,0,4.13,4,30.25,30.25,0,0,0,2.9-13.12,30.59,30.59,0,0,0-1.16-8.67c-.72-2.61-1.57-5.63-3.16-6.38A2.05,2.05,0,0,0,329.33,346.51Zm56.27,1a6.58,6.58,0,0,0-4.57,3.87,10.81,10.81,0,0,0-1.11,5.95c.41,3.27,2.81,6.43,6.45,8.47,2.4-2.29,3.16-5.4,3.17-8.66,0-3.47-.8-7.84-2.65-9.2A2.07,2.07,0,0,0,385.6,347.49Z"/><path class="cls-7" d="M239.23,451.77c-.86-2.43,53.83-46.94,53.83-46.94,1.72,2.12-53,46.63-53,46.63A1.32,1.32,0,0,1,239.23,451.77Z"/><path class="cls-7" d="M285.74,304.92c-.84-.29-30.32-23.26-30.32-23.26,1.69-2.16,31.17,20.81,31.17,20.81C286.55,304.73,286.15,304.92,285.74,304.92Z"/><path class="cls-7" d="M359.48,267.07c-1.38-1.37-1.38-68.74-1.38-68.74a34.26,34.26,0,0,1,34.22-34.22H706c0,2.74-313.69,2.74-313.69,2.74a31.5,31.5,0,0,0-31.47,31.48V265.7A1.38,1.38,0,0,1,359.48,267.07Z"/><path class="cls-7" d="M509.94,445.58H392.32c0-2.73,117.62-2.73,117.62-2.73C511.31,445,510.7,445.58,509.94,445.58Z"/><path class="cls-7" d="M785.11,445.58H625.28c0-2.73,159.83-2.73,159.83-2.73a31.51,31.51,0,0,0,31.47-31.48V344c2.74,0,2.74,67.37,2.74,67.37A34.25,34.25,0,0,1,785.11,445.58Z"/><path class="cls-7" d="M362.42,777c-1.37-1.36-1.37-61.46-1.37-61.46,2.75,0,2.75,60.1,2.75,60.1A1.38,1.38,0,0,1,362.42,777Z"/><path class="cls-7" d="M308.54,736.52H162c0-2.74,146.52-2.74,146.52-2.74C309.91,735.91,309.29,736.52,308.54,736.52Z"/><path class="cls-7" d="M308.54,757.4H162c0-2.74,146.52-2.74,146.52-2.74C309.91,756.78,309.29,757.4,308.54,757.4Z"/><path class="cls-7" d="M363.29,788c-.56,0-3.73,0-3.73,0h-189a20.84,20.84,0,0,1-20.82-20.82V724.07a20.84,20.84,0,0,1,20.82-20.82H362.87c.08,0,3.62-.2,5.86,1.91a5.78,5.78,0,0,1,1.77,4.4,7.25,7.25,0,0,1-2.18,5.62,7.74,7.74,0,0,1-5.59,1.74l-192.2,0a7.14,7.14,0,0,0-7.13,7.14v43.08a7.14,7.14,0,0,0,7.13,7.14H362.87c.08,0,3.62-.19,5.86,1.92a5.76,5.76,0,0,1,1.77,4.39,7.25,7.25,0,0,1-2.18,5.62A7.62,7.62,0,0,1,363.29,788Zm-.16-82-192.6,0a18.1,18.1,0,0,0-18.08,18.08v43.08a18.1,18.1,0,0,0,18.08,18.08H362.87a5.21,5.21,0,0,0,3.63-1.06,4.62,4.62,0,0,0,1.26-3.57,3.08,3.08,0,0,0-.91-2.4A6,6,0,0,0,363,777H170.53a9.88,9.88,0,0,1-9.88-9.87V724.07a9.88,9.88,0,0,1,9.88-9.87l192.34,0a5.33,5.33,0,0,0,3.63-1.06,4.62,4.62,0,0,0,1.26-3.57,3.13,3.13,0,0,0-.91-2.41A5.85,5.85,0,0,0,363.13,706Z"/><path class="cls-7" d="M210.91,698.85c-1.38-1.36-1.38-40.28-1.38-40.28,2.75,0,2.75,38.92,2.75,38.92A1.37,1.37,0,0,1,210.91,698.85Z"/><path class="cls-7" d="M345,679.4H235.28c0-2.74,109.69-2.74,109.69-2.74C346.34,678.79,345.72,679.4,345,679.4Z"/><path class="cls-7" d="M354.57,697.49c3.5,0,6.36-2.47,6.36-5.51V664.07c0-3-2.86-5.5-6.36-5.5H212.65c-2.09,0-6.77.24-6.77-3.21,0-4.3,4.68-3.88,4.68-3.88h144c8,0,14.55,5.66,14.55,12.59V692c0,6.93-6.55,12.6-14.55,12.6h-144s-4.68.25-4.68-3.2c0-4.3,4.68-3.89,4.68-3.89Z"/><path class="cls-7" d="M128.07,729.2A102.53,102.53,0,0,1,114.28,720c6.18,1.34,10.49,4.32,14.5,6.7C129,729,128.54,729.2,128.07,729.2Zm-25-19.12a132.07,132.07,0,0,1-12.3-11.39c5.66,1.91,9.45,5.59,13.21,9C103.81,709.93,103.44,710.08,103.07,710.08Zm-22-22.59a117.52,117.52,0,0,1-11-12.8c5.25,2.41,8.56,6.5,12,10.53C81.74,687.38,81.43,687.49,81.11,687.49Zm-19-25.16a81.49,81.49,0,0,1-9.06-14.42c4.57,3.05,7.19,7.6,10.21,12.31C62.65,662.26,62.39,662.33,62.13,662.33ZM48.45,634.05a63.83,63.83,0,0,1-5.1-16.4c3.64,4.59,4.89,9.68,6.41,14.64C48.72,634,48.58,634.05,48.45,634.05Zm-5.79-30.89a33.09,33.09,0,0,1-1.77-11.73c0-1.81,0-3.63.12-5.44,2.67,1.88,2.63,3.66,2.63,5.44,0,3.41.13,6.86.38,10.26C42.73,603.16,42.69,603.16,42.66,603.16ZM44,571.75a1.4,1.4,0,0,1-1.34-1.59,119.51,119.51,0,0,1,3.59-15.51c1.14,5.66-.05,10.76-.9,16A1.37,1.37,0,0,1,44,571.75Zm9.24-30A36.08,36.08,0,0,1,60,526c-.66,5.74-3.28,10.26-5.53,15A1.36,1.36,0,0,1,53.19,541.74Zm109.1-5.81a21.49,21.49,0,0,1-6.37-1,26.94,26.94,0,0,1-5.9-2.65c3.11-1.33,4.91-.52,6.72,0a19,19,0,0,0,8.82.56C164.81,535.82,163.55,535.93,162.29,535.93Zm16.36-8.65c.44-4.58,1.28-7.43,1.28-10.34a17.22,17.22,0,0,0-.94-5.49c3.31,1.24,3.68,3.39,3.68,5.49a18,18,0,0,1-2.86,9.71A1.38,1.38,0,0,1,178.65,527.28Zm-39-5.79a12.12,12.12,0,0,1-3-3.65,65,65,0,0,1-4.78-11.63c4,3.6,5.49,7.24,7.17,10.32.53,1,1.11,1.91,1.71,2.84C140.16,521.42,139.91,521.49,139.65,521.49Zm-68.34-5.3c2.66-5.59,7-8.8,11.93-11.89-3.37,5.33-7.57,8.43-11,11.54A1.37,1.37,0,0,1,71.31,516.19Zm26.52-16.85c4.27-4.86,9.24-6.84,14.21-8.48-4,4.21-8.88,6.14-13.63,8.36A1.34,1.34,0,0,1,97.83,499.34Zm74.34-.54a39.12,39.12,0,0,0-13.74-8.23c6.33-.75,11,2.11,14.71,5.9C172.86,498.67,172.52,498.8,172.17,498.8Zm-43-6.85c-3.26-8.34-4.37-12.11-5.74-15.56,4,2.6,5.12,6.47,6.1,10.14a81.06,81.06,0,0,1,12.93-1.09c-3.87,2.74-8,3.07-12.24,3.75C129.35,491.94,129.24,492,129.13,492Zm-9.38-30.05a58,58,0,0,1-4.15-16.71c3.32,4.88,4.25,10,5.48,15C120,461.89,119.86,461.9,119.75,461.9Zm-3.67-31.21a50.81,50.81,0,0,1-.36-17.25c2.09,5.45,1.76,10.68,1.73,15.89A1.38,1.38,0,0,1,116.08,430.69Zm3.83-31.2c-1.06-.22-1.51-1-1.33-1.7a131,131,0,0,1,4.71-15.19c.74,5.79-.81,10.79-2.05,15.85A1.38,1.38,0,0,1,119.91,399.49ZM131,370.09c1.29-6.74,4.11-11.29,7.15-15.55-.75,5.75-3.5,10.2-5.95,14.82A1.35,1.35,0,0,1,131,370.09Zm18.27-25.52c2.69-6.18,6.66-9.78,10.8-13-2.35,5.32-6.23,8.83-9.81,12.59A1.34,1.34,0,0,1,149.31,344.57Zm24.76-19.28c3.91-5.14,8.78-7.4,13.77-9.28-3.9,4.4-8.63,6.6-13.11,9.11A1.33,1.33,0,0,1,174.07,325.29Zm29.34-11.08c4.79-3.82,10.08-4.61,15.44-5-5,3.16-10.18,3.93-15.15,5A1.43,1.43,0,0,1,203.41,314.21Zm47-1.22a151.89,151.89,0,0,0-15.74-1.44c5.29-2.54,10.61-2.06,15.94-1.29C251.63,312.5,251,313,250.37,313Z"/><path class="cls-7" d="M567.86,581.26c-1.38-1.37-1.38-49.24-1.38-49.24,2.75,0,2.75,47.87,2.75,47.87A1.37,1.37,0,0,1,567.86,581.26Z"/><path class="cls-7" d="M496.23,500c-1.08-.24-1.52-1-1.32-1.72,2.47-9.25,9-13.44,15.34-17.48,4.42-2.83,9-5.76,12.21-10.45,7.57-11.05,2.79-29.37,2.74-29.55,2.86.08,7.81,19-.48,31.09-3.54,5.15-8.35,8.23-13,11.21-6.16,3.94-12,7.67-14.17,15.88A1.37,1.37,0,0,1,496.23,500Z"/><path class="cls-7" d="M638.77,500c-3.52-9.23-9.33-13-15.49-16.9-4.65-3-9.46-6.06-13-11.21-8.3-12.09-3.29-31.21-3.07-32,2.58.9-2.25,19.43,5.33,30.48,3.22,4.69,7.79,7.62,12.21,10.45,6.33,4,12.87,8.23,15.34,17.48C639,500,638.88,500,638.77,500Z"/><path class="cls-7" d="M703.41,237.37H686.58c0-2.74,16.83-2.74,16.83-2.74C704.79,236.75,704.17,237.37,703.41,237.37Z"/><path class="cls-7" d="M631.34,237.37H448.61c0-2.74,182.73-2.74,182.73-2.74C632.71,236.75,632.09,237.37,631.34,237.37Z"/><path class="cls-7" d="M703.41,304.92H448.61c0-2.74,254.8-2.74,254.8-2.74C704.79,304.3,704.17,304.92,703.41,304.92Z"/><path class="cls-7" d="M958.38,527.05c-1.08-.24-1.52-1-1.32-1.72l8.69-32.85c2.64.7-6,33.56-6,33.56A1.35,1.35,0,0,1,958.38,527.05Z"/><path class="cls-7" d="M1081.53,601.91c-4.76-.23-7.81-1.47-9.75-3.7-3.14-3.61-2.67-8.89-2.33-12.73.09-1,.17-1.86.17-2.6,0-4.38-5.35-13.92-12-17.41,8.57,1.39,14.79,11.68,14.76,17.42,0,.81-.09,1.77-.18,2.82-.31,3.55-.7,8,1.67,10.69,1.42,1.66,3.84,2.58,7.16,2.75a6.64,6.64,0,0,0,6.37-2.91c4.32-6.13,2.32-19.77-.79-27.26-4.8-11.54-16.63-13.26-21.49-13.47-7.21,0-10.41,6.36-10.43,6.43-2.31-1.54,1.72-9.52,10.55-9.17,5.38.23,18.48,2.17,23.89,15.16,3.23,7.77,5.62,22.64.51,29.89A9.48,9.48,0,0,1,1081.53,601.91Z"/><path class="cls-7" d="M1135.32,447.43c-1.13-.28-1.53-1-1.32-1.77,5.86-19.51-4.32-24.55-15.09-29.89-8-3.94-16.19-8-17.65-18-1.68-11.56,4-23.34,9.38-34.74,5.31-11.11,10.8-22.61,9.43-33.74-2.69-21.78-45.27-28-45.69-28.1-5.2-6.15-21.22-11.64-37.34-10.6-13.15.88-23,6-27.82,14.39-12.82,22.48-.15,44.22,0,44.44-2.49,1.17-16-21.94-2.36-45.79,5.25-9.23,15.92-14.83,30-15.77,15.35-1,32.64,3.84,38.44,10.7,5.35.83,44.68,7.68,47.48,30.39,1.48,11.93-4.19,23.79-9.67,35.27s-10.7,22.41-9.14,33.16c1.25,8.58,8.49,12.16,16.15,16,10.79,5.35,23,11.41,16.51,33.13A1.38,1.38,0,0,1,1135.32,447.43Z"/><path class="cls-7" d="M1016.15,426.36c-9.9-14.82.34-23,.44-23,1.33,2.43-6.68,8.92.72,20.94C1016.64,426.29,1016.39,426.36,1016.15,426.36Z"/><path class="cls-7" d="M1129.21,661.05c-13.75-16.3-8.55-40.83,10.77-56.34,13.94-11.19,30.4-14.34,44-8.5-13.8-3-29.18.11-42.31,10.64-18.13,14.54-23.14,37.38-11.42,52C1129.82,661,1129.51,661.05,1129.21,661.05Z"/><path class="cls-7" d="M1156.73,410.43c.08-4.91,2.23-9.83,4.84-16.43a36.61,36.61,0,0,1-3.59,15.62A1.38,1.38,0,0,1,1156.73,410.43Zm11.65-29.33c.46-6.8,2.14-11.81,3.71-16.73,1,5.77-.65,10.82-2.42,15.81A1.38,1.38,0,0,1,1168.38,381.1Zm9.54-30c-1.1-.26-1.52-1-1.32-1.75,1.4-4.93,2.75-10.05,4-15.19,1.38,5.83,0,11-1.38,15.94A1.37,1.37,0,0,1,1177.92,351.06Zm7.52-30.62c-1-.18-1.5-.9-1.34-1.64,1.07-5.19,2-10.38,2.89-15.44,1.85,5.54.86,10.77-.22,16A1.35,1.35,0,0,1,1185.44,320.44Zm5.16-31.08a1.41,1.41,0,0,1-1.36-1.54c.66-5.23,1.19-10.48,1.59-15.62,2.32,5.39,1.78,10.69,1.12,16A1.37,1.37,0,0,1,1190.6,289.36Zm2.44-31.42a27.57,27.57,0,0,1-1.26-9.47q0-3.79-.1-7.61c2.81,2.49,2.84,5,2.84,7.61,0,2.72,0,5.44-.12,8.14A1.36,1.36,0,0,1,1193,257.94Zm-.9-31.48a132.6,132.6,0,0,1-3.27-16.78c3.51,4.68,4.16,10,4.64,15.29C1192.22,226.46,1192.19,226.46,1192.14,226.46Zm-4.93-31.08c-2.56-6.23-4-11.29-5.53-16.13,4.19,4.06,5.62,9.2,6.86,14.44C1187.42,195.36,1187.31,195.38,1187.21,195.38Zm-9.7-29.94c-3.3-5.63-5.56-10.37-8-14.91,4.91,3.32,7.22,8.14,9.28,13C1177.87,165.41,1177.69,165.44,1177.51,165.44Zm-14.94-27.68c-4-4.9-7.17-9.11-10.48-13.11,5.47,2.32,8.67,6.6,11.62,11C1163.1,137.69,1162.83,137.76,1162.57,137.76Z"/><path class="cls-7" d="M834.81,129.49C834,127,838.26,123,846,116.8a95.81,95.81,0,0,1-10.24,12.31A1.35,1.35,0,0,1,834.81,129.49Zm24.63-19.75c3.46-5.52,7.87-8.52,12.32-11.37-2.93,5.13-7.31,8.1-11.52,11.12A1.4,1.4,0,0,1,859.44,109.74ZM886,92.7c3.87-5.18,8.55-7.72,13.24-10.1-3.4,4.8-8,7.32-12.55,9.92A1.45,1.45,0,0,1,886,92.7Zm28.09-14.28c4.32-4.77,9.24-6.78,14.11-8.6-3.85,4.36-8.74,6.36-13.55,8.49A1.4,1.4,0,0,1,914.06,78.42Zm168.09-5c-5.31-2.18-10.22-4.08-15.12-5.76,5.86-.89,10.83,1,15.67,3.14C1083.18,73.07,1082.68,73.38,1082.15,73.38Zm-138.59-6c4.65-4.22,9.8-5.61,14.9-6.8C954,64.43,949,65.81,944,67.33A1.11,1.11,0,0,1,943.56,67.39Zm108.81-4.16c-5.39-1.3-10.54-2.36-15.63-3.2,5.61-1.86,10.83-.78,16,.5C1053.55,62.82,1053,63.23,1052.37,63.23Zm-78.14-3c5-3.56,10.31-4.21,15.51-4.64-4.9,3.15-10.12,3.79-15.3,4.63Zm47.09-2q-7.41-.57-14.79-.57c5-2.74,10-2.54,14.89-2.16C1022.63,57.63,1022,58.18,1021.32,58.18Z"/><path class="cls-7" d="M1124.91,120.67a22.37,22.37,0,1,1,22.36-22.37A22.4,22.4,0,0,1,1124.91,120.67Zm0-42a19.64,19.64,0,1,0,19.62,19.63A19.65,19.65,0,0,0,1124.91,78.67Z"/><rect class="cls-17" x="424.72" y="579.89" width="284.21" height="190.59" rx="17.42"/><circle class="cls-4" cx="572.36" cy="683.31" r="20.05"/></svg>