<svg id="Capa_1" data-name="Capa 1" xmlns="http://www.w3.org/2000/svg" xmlns:xlink="http://www.w3.org/1999/xlink" viewBox="0 0 1251 864"><defs><style>.cls-1{fill:#606060;opacity:0.06;}.cls-2{fill:#fff;}.cls-10,.cls-11,.cls-12,.cls-13,.cls-14,.cls-3,.cls-6,.cls-7,.cls-8,.cls-9{opacity:0.5;}.cls-3{fill:url(#Degradado_sin_nombre_47);}.cls-4{fill:#1a1a1a;}.cls-5{opacity:0.53;fill:url(#Degradado_sin_nombre_26);}.cls-6{fill:url(#Degradado_sin_nombre_47-2);}.cls-7{fill:url(#Degradado_sin_nombre_66);}.cls-8{fill:url(#Degradado_sin_nombre_66-2);}.cls-9{fill:url(#Degradado_sin_nombre_66-3);}.cls-10{fill:url(#Degradado_sin_nombre_66-4);}.cls-11{fill:url(#Degradado_sin_nombre_66-5);}.cls-12{fill:url(#Degradado_sin_nombre_66-6);}.cls-13{fill:url(#Degradado_sin_nombre_66-7);}.cls-14{fill:url(#Degradado_sin_nombre_66-8);}</style><linearGradient id="Degradado_sin_nombre_47" x1="813.44" y1="680.3" x2="1043.8" y2="680.3" gradientUnits="userSpaceOnUse"><stop offset="0" stop-color="#d109c8"/><stop offset="1" stop-color="#f40019"/></linearGradient><linearGradient id="Degradado_sin_nombre_26" x1="740.2" y1="458.07" x2="852.88" y2="458.07" gradientUnits="userSpaceOnUse"><stop offset="0" stop-color="#1a65bc"/><stop offset="0.3" stop-color="#0f76d2"/><stop offset="0.69" stop-color="#0488e9"/><stop offset="0.94" stop-color="#008ff2"/></linearGradient><linearGradient id="Degradado_sin_nombre_47-2" x1="954.07" y1="348.61" x2="1033.62" y2="348.61" xlink:href="#Degradado_sin_nombre_47"/><linearGradient id="Degradado_sin_nombre_66" x1="309.39" y1="629.46" x2="396.98" y2="629.46" gradientUnits="userSpaceOnUse"><stop offset="0" stop-color="#ff5a00"/><stop offset="1" stop-color="#ffbe00"/></linearGradient><linearGradient id="Degradado_sin_nombre_66-2" x1="274.65" y1="496.37" x2="310.55" y2="496.37" xlink:href="#Degradado_sin_nombre_66"/><linearGradient id="Degradado_sin_nombre_66-3" x1="308.65" y1="697.72" x2="396.82" y2="697.72" xlink:href="#Degradado_sin_nombre_66"/><linearGradient id="Degradado_sin_nombre_66-4" x1="179.75" y1="663.19" x2="268.69" y2="663.19" xlink:href="#Degradado_sin_nombre_66"/><linearGradient id="Degradado_sin_nombre_66-5" x1="702.79" y1="213.43" x2="732.91" y2="213.43" xlink:href="#Degradado_sin_nombre_66"/><linearGradient id="Degradado_sin_nombre_66-6" x1="116.1" y1="298.07" x2="152.81" y2="298.07" xlink:href="#Degradado_sin_nombre_66"/><linearGradient id="Degradado_sin_nombre_66-7" x1="351.72" y1="305.58" x2="404.16" y2="305.58" xlink:href="#Degradado_sin_nombre_66"/><linearGradient id="Degradado_sin_nombre_66-8" x1="479.96" y1="738.74" x2="536.74" y2="738.74" xlink:href="#Degradado_sin_nombre_66"/></defs><path id="Trazado_509" data-name="Trazado 509" class="cls-1" d="M150.32,711.49C86,684.2,28.84,584.7,106.21,435.61S287.39,361.55,282.43,188,521.32-.4,598.92,50s84.44,82.78,244.68,62.78S1078.36,240.46,1025.7,343c-61.52,119.72,215.49,213.1-14.93,365.19C831.24,826.66,348.34,795.54,150.32,711.49Z"/><rect class="cls-2" x="973.75" y="341.03" width="39.93" height="39.93"/><path class="cls-2" d="M978.09,271.24h31.18a1.52,1.52,0,0,1,1.52,1.52v28.68a1.53,1.53,0,0,1-1.53,1.53H978.09a1.53,1.53,0,0,1-1.53-1.53V272.76A1.53,1.53,0,0,1,978.09,271.24Z"/><path class="cls-2" d="M755.6,337.55s28.16,17.85,29.18,48.67l-27.88,4.27,4.43-19.87S762.38,345.32,755.6,337.55Z"/><rect class="cls-2" x="292.57" y="168.98" width="471.91" height="323.77" rx="14.33"/><rect class="cls-3" x="813.44" y="596.76" width="230.35" height="167.08" rx="6.44"/><path class="cls-4" d="M899.09,527.53c-4.55-11.91-13.31-30.82-23.65-46.17S844.22,437,841.1,434.74l-7.87,14.08L825,467.69l7.25,62.11-80.73-9.62s-38.44,2.47-58.68,28.46-17.74,35.73-28.23,55.46-12.75,27-27,23.74-15.25-13.24-18.49-23.49-24.91-75.88-26.45-80.79c0,0-15.53-12.39-42.26-7.9s-37.28,21.16-37.28,21.16,12,72.66,22,98,28.28,84.73,95.24,85.83c0,0,36.79.92,56.66-13.54,1.46.89-6.18,81.52-10.43,99.54h184s-10.78-51.51-5.1-94.32,6.39-100.57,5.69-109c-.33-3.89-.64-10.16-1.23-17,5.72,2.35,19.83,5,31.94-9.25C906.44,560,903.65,539.43,899.09,527.53Z"/><path class="cls-2" d="M574.78,514.72s2.85-27.1,3.22-29.21,2.25-14.62-1.61-23.67-4.66-17.51-11.73-18.51-9.76-.62-11.62,1.94-.77,9.4,1.16,13.43,9.1,17.61,2,22.67-9.44.91-10.26-5.56-1.72-18.59,1.12-23.4,7.32-9.45,7.17-13.57a8,8,0,0,0-9.1-7.5,18.43,18.43,0,0,0-8.42,3.43s-16.35,0-20,14.44c0,0-10.27,8-11.85,21.19s1,27.91,2.48,33.56,7.55,21.22,11.05,25.26c0,0,12.49-10.19,22.48-11.93S574.78,514.72,574.78,514.72Z"/><path class="cls-2" d="M742.42,421s-9.78,40.48-10.74,45.84-4.75,23.17,16.86,26.87c0,0,2.4-8.47,7.85-13.59s9.78-8.48,9.78-8.48,14.58,2.76,18-9.6-7.44-17.75-11.35-18.49a40.28,40.28,0,0,1-7.75-2.47S745.8,430,742.42,421Z"/><path class="cls-2" d="M743,421s-6.38-16.78,0-27.89,17.92-14.61,27.39-14.49,27.06,4.43,37.82,14.45c0,0,23,5.33,29.49,16.05s2.81,22.91,1.51,26.62-9.2,18.78-9.6,22.17c0,0-1.46,3,5.61,8.88s15.6,13.41,17.1,25.95,1.16,34.13-19.47,42.07-40.79-3.94-43.2-6.81c-1.84-.19-23.18,8.76-34.72-5.48s-5.72-31.62-3.07-35.55,9-12.33,13.46-14.69c0,0,13.2,3.31,17.37-7s-.82-18.19-5.32-20.69a14.18,14.18,0,0,0-8.62-1.75S747.52,435.17,743,421Z"/><path class="cls-5" d="M743,421s-6.38-16.78,0-27.89,17.92-14.61,27.39-14.49,27.06,4.43,37.82,14.45c0,0,23,5.33,29.49,16.05s2.81,22.91,1.51,26.62-9.2,18.78-9.6,22.17c0,0-1.46,3,5.61,8.88s15.6,13.41,17.1,25.95,1.16,34.13-19.47,42.07-40.79-3.94-43.2-6.81c-1.84-.19-23.18,8.76-34.72-5.48s-5.72-31.62-3.07-35.55,9-12.33,13.46-14.69c0,0,13.2,3.31,17.37-7s-.82-18.19-5.32-20.69a14.18,14.18,0,0,0-8.62-1.75S747.52,435.17,743,421Z"/><path class="cls-4" d="M1013.05,434.42H974.68a8.26,8.26,0,0,1-8.24-8.23c0-5.21,3.71-8.92,8.24-8.92h38.37a8.26,8.26,0,0,1,8.23,8.24C1021.28,430.72,1017.58,434.42,1013.05,434.42Z"/><path class="cls-6" d="M993.67,287.1l-39.6,80.62s5.48,29.9,16.9,42.39h46.86s14.55-24.66,15.79-41.94Zm0,86.52A12.63,12.63,0,1,1,1006.31,361,12.63,12.63,0,0,1,993.67,373.62Z"/><path class="cls-7" d="M309.39,674.47s17.41-31.16,40.66-55.14S397,584.45,397,584.45s-.32,30.45-35.24,59.66S309.39,674.47,309.39,674.47Z"/><path class="cls-8" d="M310.52,536.55s-.15-27.74-5.92-43.8-19.17-32.85-30-37.28c0,0,.14,16.2,8.75,37.28s27.15,44.53,27.15,44.53Z"/><path class="cls-4" d="M321.15,537.28s40-18,57.78-37.13,23.33-30.21,24.95-34.85,3.74-17.78,3.74-17.78-27.13,11-51.47,38.42S321.65,532.25,321.15,537.28Z"/><path class="cls-4" d="M324,585.29s42.68-9.35,64.14-23.58,32.63-32.89,33-36.89c0,0-30.1,5.46-56.33,25.44S324,585.29,324,585.29Z"/><path class="cls-4" d="M291.47,707.77s-2.79-38.41-18-68.71-28.61-43.48-28.61-43.48-11.36,22,4.13,56.09S291.47,707.77,291.47,707.77Z"/><path class="cls-9" d="M308.66,743.76s42.29-19.59,62-40.82,27.35-42.5,26-51.27c0,0-31.16,14.42-52.88,41.53S308.16,738.84,308.66,743.76Z"/><path class="cls-10" d="M268.69,709.5s-12.79-29.1-35.37-50.71-45.52-40.27-53.54-41.9c0,0-1.92,30.34,31.67,57.58S268.69,709.5,268.69,709.5Z"/><path class="cls-4" d="M263.22,777.08s-31.25-24.75-48.45-46.4-28.71-52.41-28.71-52.41,32.92,8.56,51.36,38.07,25.8,61.6,25.8,61.6Z"/><path class="cls-4" d="M764,240.34c0-39.25-31-71.36-68.83-71.36H360.85C323,169,292,201.09,292,240.34V252.2H764Z"/><path class="cls-2" d="M641.4,213.43a15.07,15.07,0,1,1-15.06-15.06A15.06,15.06,0,0,1,641.4,213.43Z"/><path class="cls-2" d="M687.15,213.43a15.06,15.06,0,1,1-15.06-15.06A15.06,15.06,0,0,1,687.15,213.43Z"/><path class="cls-11" d="M732.91,213.43a15.06,15.06,0,1,1-15.06-15.06A15.06,15.06,0,0,1,732.91,213.43Z"/><rect class="cls-4" x="121.57" y="319.19" width="44.78" height="44.78" rx="1.53" transform="translate(-176.62 155.5) rotate(-37.01)"/><path class="cls-12" d="M148.39,302.16l4.42-30.61s-3.64-.44-5.74,1.12c-1.87,1.4-19.63,14.81-23.56,17.77a6.93,6.93,0,0,0-1.77,1.93,13.27,13.27,0,0,0-1.79,5l-3.85,27.23L144,302.75A5.4,5.4,0,0,1,148.39,302.16Z"/><rect class="cls-13" x="351.72" y="279.35" width="52.44" height="52.44"/><rect class="cls-4" x="321.15" y="393.93" width="52.44" height="52.45"/><path class="cls-14" d="M536.74,738.74a28.39,28.39,0,1,1-28.38-28.39A28.39,28.39,0,0,1,536.74,738.74Z"/><path class="cls-2" d="M586.7,709.29s17.8,10.51,46.41,11.43,44.33-8.78,44.33-8.78-9.73-29.39-44-29.39S587.53,706.54,586.7,709.29Z"/><path class="cls-4" d="M633.58,722c-3.59,0-7.24-.15-11-.46l-3.89-.43c-19.91-2.67-37.52-11.34-51-25.06-21.05-21.47-31.43-51.13-38.81-77.32-8-28.48-11.93-51.58-16.88-80.8.33-2.52,9.63-21.22,42.19-24.16,29.27-2.64,39.09,8.43,39.49,8.9s28.21,85.86,28.21,85.86c2.21,6.86,4.3,13.34,10.54,16.9a16.92,16.92,0,0,0,19.35-2.08c5.49-4.58,8.57-11.28,11.49-18.32,1.44-3.47,2.84-7,4.25-10.48,4.53-11.27,9.22-22.93,15.1-33.72,6.66-12.21,17.33-23,30.87-31.12,11.2-6.74,31.56-10,39.8-11.15a1.3,1.3,0,0,1,1.48,1.14,1.32,1.32,0,0,1-1.13,1.48c-6.3.84-27.71,4.12-38.78,10.79-13.15,7.91-23.49,18.33-29.93,30.12-5.81,10.66-10.46,22.25-15,33.44-1.42,3.52-2.83,7-4.26,10.51-2.94,7.07-6.3,14.38-12.24,19.34a19.53,19.53,0,0,1-22.35,2.34c-7.13-4.07-9.47-11.34-11.74-18.38l-9.7-29.72-18.16-55.41c-1.33-1.32-11.28-10.13-37.1-7.81-28.67,2.58-38.49,18.07-39.9,20.6,5,29.64,8.91,52.67,16.9,81,7.29,25.86,17.52,55.13,38.16,76.19,13,13.3,30.12,21.69,49.41,24.28l3.82.42c105.55,8.83,130.61-112.61,130.85-113.84a1.35,1.35,0,0,1,1.55-1.05,1.33,1.33,0,0,1,1,1.55C756,606.82,732.13,722,633.58,722Z"/><path class="cls-2" d="M876.12,711.08c-1.34-.64-1.5-1.45-1.09-2.06L936,618.63a1.32,1.32,0,0,1,1.83-.35,1.31,1.31,0,0,1,.35,1.82l-60.93,90.4A1.32,1.32,0,0,1,876.12,711.08Z"/><path class="cls-2" d="M954,711.08c-1.43-.86-1.45-1.7-1-2.22l43-45.55-43-43a1.32,1.32,0,1,1,1.87-1.86l43.92,43.91a1.33,1.33,0,0,1,0,1.84l-43.92,46.47A1.29,1.29,0,0,1,954,711.08Z"/><path class="cls-4" d="M357.08,808H229.63a1.32,1.32,0,1,1,0-2.64H357.08a1.32,1.32,0,1,1,0,2.64Z"/><path class="cls-4" d="M268.69,710.81c-95.61-43.77-90.48-92-90.22-94.09,60,28.1,91.11,91.57,91.41,92.2C269.57,710.59,269.15,710.81,268.69,710.81ZM181,619c.14,9.39,5.49,51,85.29,88.76C260.24,696.3,230.92,644.9,181,619Z"/><path class="cls-4" d="M308.66,745.07c-2.23-2.77,33.2-67.79,87.38-94.94,2.15,3,7,51.1-86.82,94.82A1.34,1.34,0,0,1,308.66,745.07Zm86.71-91.64c-46.49,24.24-78.7,76.46-85.59,88.34C389.71,704,395.21,662.79,395.37,653.43Z"/><path class="cls-4" d="M264.41,779.26a25.74,25.74,0,0,1-3.35-2.11c-14.2-10.54-61.67-48.76-76.26-98.51,2-1.59,57.66,7.68,80.9,99C264.93,779.18,264.67,779.26,264.41,779.26ZM188,680.05c15.31,48.53,63.47,86.63,74.23,94.66C241.6,698.43,198.07,682.71,188,680.05Z"/><path class="cls-4" d="M290.55,709.09c-71-69.36-48.31-112.86-47.31-114.68,41.74,40.92,48.57,101,49.54,112.67C291,709,290.79,709.09,290.55,709.09Zm-45.74-111.7c-3.32,8.59-14.05,48.84,45.17,108C288.51,690.41,280.8,636,244.81,597.39Z"/><path class="cls-4" d="M304.49,595.77c-.54-.12-3.37-1.38-3.37-1.38-91.22-43.42-87-90.58-86.79-92.57,59.68,27.93,90.08,89.45,91.35,92.05C305.19,595.63,304.84,595.77,304.49,595.77Zm-87.57-91.66c.32,9.37,6.42,50.13,84.67,87.58C294.47,578.37,265.86,529.5,216.92,504.11Z"/><path class="cls-4" d="M309.9,538.59c-1.36-.9-35.94-43.39-36.57-83.1,3.32-.69,39.81,13.46,38.51,81.08C310.66,538.42,310.29,538.59,309.9,538.59Zm-33.87-81c1.54,33.14,26.44,67.85,33.2,76.72C309.6,479,283.3,461.37,276,457.57Z"/><path class="cls-4" d="M320,539.63c-1.31-1.51-.9-4.29-.9-4.29,8-15.11,37.59-65,87.84-90.14,2.12,3,6.4,50.71-86.38,94.31A1.38,1.38,0,0,1,320,539.63Zm1.67-3.68c78.18-37.32,84.26-78.07,84.57-87.44C358.1,473.51,329.55,521.38,321.71,536Z"/><path class="cls-4" d="M309.41,677.72c1.31-8.81,32-66.92,87-94.45,2.13,3,6.41,50.73-86.41,94.33A1.34,1.34,0,0,1,309.41,677.72Zm86.28-91.14C347,611.89,317.91,661.42,311,674.17,389.3,636.72,395.37,596,395.69,586.58Z"/><path class="cls-4" d="M323.69,586.8c-1.36-3.32,44.75-51.48,97.27-64.07,1.32,3.26-6.47,44.72-96.28,63.76A2.35,2.35,0,0,1,323.69,586.8Zm95.71-61c-44.32,11.49-83.67,48.11-93.35,57.65C400.93,567.12,416.56,534.33,419.4,525.84Z"/><path class="cls-4" d="M288.08,808a1.34,1.34,0,0,1-1.31-1.47l32-268.37a1.32,1.32,0,0,1,2.62.31l-32,268.37A1.33,1.33,0,0,1,288.08,808Z"/><path class="cls-4" d="M273.18,808a1.33,1.33,0,0,1-1.32-1.26l-4.48-97.18a1.31,1.31,0,0,1,1.25-1.38,1.33,1.33,0,0,1,1.38,1.26l4.49,97.18a1.32,1.32,0,0,1-1.26,1.38Z"/><path class="cls-4" d="M265.35,807.87a1.33,1.33,0,0,1-1.32-1.28L263.1,778a1.3,1.3,0,0,1,1.27-1.35,1.34,1.34,0,0,1,1.36,1.27l.94,28.61a1.33,1.33,0,0,1-1.28,1.36Z"/><path class="cls-4" d="M304.18,807.87a1.35,1.35,0,0,1-1.33-1.39l3.07-63a1.4,1.4,0,0,1,1.39-1.25,1.31,1.31,0,0,1,1.25,1.38l-3.07,63A1.32,1.32,0,0,1,304.18,807.87Z"/><path class="cls-4" d="M296.42,728.46c-1.28-1-6.61-22.61-6.61-22.61a1.3,1.3,0,0,1,1-1.59,1.33,1.33,0,0,1,1.6,1l5.33,21.6a1.31,1.31,0,0,1-1,1.6A1.17,1.17,0,0,1,296.42,728.46Z"/><path class="cls-4" d="M302,690.72c-1.23-.46-1.5-1.24-1.18-1.9l6.52-13.36a1.32,1.32,0,1,1,2.37,1.16L303.23,690A1.34,1.34,0,0,1,302,690.72Z"/><path class="cls-4" d="M308,636.08c-1.32-1.2-4.8-41.51-4.8-41.51a1.32,1.32,0,0,1,2.63-.23l3.48,40.31a1.32,1.32,0,0,1-1.2,1.43Z"/><path class="cls-4" d="M315.76,570.33c-1.3-1.08-7.15-32.82-7.15-32.82a1.32,1.32,0,0,1,1.06-1.53A1.29,1.29,0,0,1,311.2,537l5.85,31.73A1.31,1.31,0,0,1,316,570.3,1.05,1.05,0,0,1,315.76,570.33Z"/><path class="cls-4" d="M311.1,614.51c-1.2-.39-1.5-1.17-1.21-1.84L322,584.58a1.32,1.32,0,1,1,2.42,1l-12.08,28.1A1.33,1.33,0,0,1,311.1,614.51Z"/><path class="cls-4" d="M971,411.43C957.66,394.17,953,369,952.78,368c.12-.83,39.71-81.44,39.71-81.44a1.32,1.32,0,1,1,2.36,1.17L955.46,367.9c.67,3.39,5.53,26.36,16.58,41.43a1.32,1.32,0,0,1-.29,1.84A1.26,1.26,0,0,1,971,411.43Z"/><path class="cls-4" d="M1018.18,410.93c-1.36-.66-1.5-1.48-1.08-2.08,10.74-15.1,14.7-37.65,15.23-40.92l-39.84-80.24a1.31,1.31,0,0,1,.59-1.76,1.3,1.3,0,0,1,1.77.59l40,80.61c0,1.82-3.71,26.51-15.62,43.25A1.3,1.3,0,0,1,1018.18,410.93Z"/><path class="cls-4" d="M1017.83,411.42H971a1.32,1.32,0,1,1,0-2.63h46.86a1.32,1.32,0,0,1,0,2.63Z"/><path class="cls-4" d="M1013.05,435.75H974.68a9.57,9.57,0,0,1-9.56-9.56c0-5.95,4.29-10.24,9.56-10.24h38.37a9.57,9.57,0,0,1,9.55,9.56C1022.6,431.46,1018.31,435.75,1013.05,435.75Zm-38.37-17.16a6.92,6.92,0,0,0-6.92,6.92c0,4.49,3.1,7.6,6.92,7.6h38.37a6.93,6.93,0,0,0,6.91-6.92c0-4.5-3.1-7.6-6.91-7.6Z"/><path class="cls-4" d="M993.71,374.94a14,14,0,1,1,14-13.95A14,14,0,0,1,993.71,374.94Zm0-25.26A11.31,11.31,0,1,0,1005,361,11.32,11.32,0,0,0,993.71,349.68Z"/><path class="cls-4" d="M993.71,348.72a1.32,1.32,0,0,1-1.31-1.32V288.77a1.32,1.32,0,0,1,2.63,0V347.4A1.33,1.33,0,0,1,993.71,348.72Z"/><path class="cls-4" d="M1004,304.29h-2.1a1.32,1.32,0,0,1,0-2.64h2.1a5.43,5.43,0,0,0,5.43-5.43V278a5.43,5.43,0,0,0-5.43-5.42H983.31a5.43,5.43,0,0,0-5.43,5.42v18.24a5.43,5.43,0,0,0,5.43,5.43h2.57a1.32,1.32,0,1,1,0,2.64h-2.57a8.07,8.07,0,0,1-8.07-8.07V278a8.07,8.07,0,0,1,8.07-8.06H1004a8.08,8.08,0,0,1,8.07,8.06v18.24A8.08,8.08,0,0,1,1004,304.29Z"/><path class="cls-4" d="M770.36,473.61a15.69,15.69,0,0,1-12.91-6.8,1.32,1.32,0,0,1,2.18-1.5,12.91,12.91,0,0,0,6.15,4.82,13.08,13.08,0,0,0,16.81-7.6,13.06,13.06,0,0,0-20.15-15,1.29,1.29,0,0,1-1.84-.25,1.32,1.32,0,0,1,.25-1.85,15.69,15.69,0,1,1,9.51,28.15Z"/><path class="cls-4" d="M771.45,466.59c-1.06-.54-8-10.12-8-10.12.7-2,12.59-5.47,12.59-5.47a1.32,1.32,0,1,1,.73,2.53l-10.08,2.91,5.87,8.06a1.31,1.31,0,0,1-1.07,2.09Z"/><path class="cls-4" d="M748.54,495c-7.84-.72-13.34-3.59-16.44-8.54-5.79-9.2-1.1-22.12-.89-22.66l10.55-43.14a1.29,1.29,0,0,1,1.59-1,1.33,1.33,0,0,1,1,1.59l-10.6,43.29c-.09.27-4.48,12.4.62,20.5,2.64,4.21,7.46,6.66,14.32,7.29a1.32,1.32,0,0,1,1.19,1.44A1.33,1.33,0,0,1,748.54,495Z"/><path class="cls-4" d="M730.8,458.1c-4.56-1.06-6.33-4.2-5.48-7.23l6.54-23.33a5.69,5.69,0,0,1,7-3.94,4.45,4.45,0,0,1,3.4,6,1.32,1.32,0,1,1-2.55-.71c-3.2-3.25-4.87-2.28-5.32-.68l-6.54,23.34a3,3,0,0,0,4.43,3.48,3,3,0,0,0,1.43-1.83,1.34,1.34,0,0,1,1.63-.92,1.33,1.33,0,0,1,.92,1.63,5.67,5.67,0,0,1-5.48,4.15Z"/><path class="cls-4" d="M676.6,808c-1.11-.3-1.48-1-1.25-1.73,2.4-7.17,11.82-73.09,11.82-100a1.32,1.32,0,1,1,2.63,0c0,25.58-9.16,92.48-11.95,100.79A1.33,1.33,0,0,1,676.6,808Z"/><path class="cls-4" d="M867.62,590.27a22.78,22.78,0,0,1-6.81-1,1.32,1.32,0,0,1,.79-2.52c6.71,2.1,15.12.32,22.47-4.75,33-22.84,12.76-64.43-8.59-98.12a477.83,477.83,0,0,0-36.56-49.7,1.32,1.32,0,1,1,2-1.69,477.73,477.73,0,0,1,36.76,50c14.14,22.29,47.23,74.49,7.87,101.7A32,32,0,0,1,867.62,590.27Z"/><path class="cls-4" d="M860.62,808c-1.38-1.48-11.38-47-6.32-96.49,10.58-103.53,6.22-159-14.14-179.92a1.32,1.32,0,1,1,1.88-1.85c21.25,21.81,25.69,76.26,14.88,182-5,49,4.89,94.16,5,94.62a1.32,1.32,0,0,1-1,1.57A1.43,1.43,0,0,1,860.62,808Z"/><path class="cls-4" d="M1033.2,808H447.49a1.32,1.32,0,1,1,0-2.64H1033.2a1.32,1.32,0,0,1,0,2.64Z"/><path class="cls-4" d="M776,532.21a34.94,34.94,0,0,1-5.79-.51c-11.47-1.92-23.52-11-23-30.82a34.74,34.74,0,0,1,18.3-29.78,1.32,1.32,0,0,1,1.12,2.39A31.45,31.45,0,0,0,749.88,501c-.63,22.77,15.73,27.3,20.75,28.14,15.27,2.53,21-6.25,21.21-6.62a1.32,1.32,0,0,1,2.25,1.38C793.85,524.24,788.8,532.21,776,532.21Z"/><path class="cls-4" d="M818.05,538.4c-12.07,0-23.68-3.85-29.79-9.92a1.31,1.31,0,0,1,0-1.86,1.3,1.3,0,0,1,1.86,0c5.8,5.74,17.18,9.43,28.77,9.15,10.43-.17,19.32-3.35,24.42-8.73,5.83-6.15,8.86-16.54,8.29-28.49a42.87,42.87,0,0,0-4.45-18c-2.18-4.16-5.65-6.94-9.33-9.89a60,60,0,0,1-6.39-5.65c-1.48-1.57-3-3.49-3.14-5.93-.17-3,1.6-6.32,3-9,.79-1.5,1.83-3.53,1.83-3.53a80.3,80.3,0,0,0,3.74-8c3-7.85,3.87-15.36,2.62-22.31-2.79-15.47-31.23-21.82-31.52-21.89C793.81,382,770,375,753.67,384,738,392.59,742,410.82,742.16,411.6c0,1.11.08,19.73,29.06,30.72a1.32,1.32,0,0,1-.94,2.47c-30.82-11.69-30.75-32.06-30.73-32.93,0,0-4.54-20.63,12.85-30.21s42.19-2.28,56.47,10.23c3.51.82,30.25,7.52,33.2,23.92,1.35,7.44.43,15.42-2.73,23.71a84.18,84.18,0,0,1-3.86,8.25l-1,2c-2.09,3.92-3.66,6.86-3.53,9.13.08,1.59,1.27,3.05,2.41,4.27a61.3,61.3,0,0,0,6.13,5.41c3.73,3,7.57,6.06,10,10.71a45.52,45.52,0,0,1,4.76,19.13c.35,7.44-.36,21.28-9,30.43-5.58,5.89-15.17,9.37-26.3,9.54Z"/><path class="cls-4" d="M1051.33,649.39c-1.5-1.24-1.32-2-.7-2.44,2.46-1.53,4.92-3.17,7.31-4.88a1.32,1.32,0,0,1,1.54,2.15c-2.44,1.74-4.94,3.41-7.45,5A1.35,1.35,0,0,1,1051.33,649.39ZM1070.59,635c-1.47-1-1.42-1.83-.88-2.31,3.73-3.28,7.37-6.81,10.82-10.47a1.31,1.31,0,0,1,1.86-.06,1.33,1.33,0,0,1,.06,1.87c-3.5,3.72-7.2,7.3-11,10.64A1.33,1.33,0,0,1,1070.59,635Zm20.8-22.07c-1.39-.73-1.49-1.56-1-2.13,3.06-3.9,6-8,8.8-12.23a1.32,1.32,0,0,1,2.21,1.45c-2.82,4.28-5.83,8.45-8.94,12.41A1.3,1.3,0,0,1,1091.39,613Zm16.72-25.3c-1.28-.52-1.51-1.32-1.16-2,2.41-4.36,4.7-8.89,6.8-13.46a1.32,1.32,0,1,1,2.39,1.11c-2.13,4.63-4.44,9.21-6.88,13.62A1.31,1.31,0,0,1,1108.11,587.66Zm12.71-27.55c-1.15-.34-1.5-1.1-1.24-1.78,1.78-4.72,3.41-9.53,4.85-14.3a1.29,1.29,0,0,1,1.65-.88,1.32,1.32,0,0,1,.88,1.65c-1.46,4.82-3.11,9.68-4.91,14.46A1.33,1.33,0,0,1,1120.82,560.11Zm8.79-29.05c-1-.2-1.45-.91-1.28-1.61,1.13-4.86,2.11-9.84,2.92-14.82a1.32,1.32,0,0,1,2.61.44c-.83,5-1.82,10.06-3,15A1.32,1.32,0,0,1,1129.61,531.06Zm4.92-29.94a1.34,1.34,0,0,1-1.31-1.44c.49-5.05.83-10.12,1-15.07a1.27,1.27,0,0,1,1.37-1.27,1.32,1.32,0,0,1,1.27,1.36c-.17,5-.51,10.13-1,15.23A1.31,1.31,0,0,1,1134.53,501.12Zm1-30.32a1.33,1.33,0,0,1-1.32-1.28c-.16-5.08-.49-10.15-1-15.06a1.31,1.31,0,0,1,1.18-1.44,1.23,1.23,0,0,1,1.44,1.18c.49,5,.83,10.09,1,15.23a1.33,1.33,0,0,1-1.28,1.37Zm-3-30.19a145.29,145.29,0,0,1-4.3-15.89,1.31,1.31,0,0,1,1-1.59,1.33,1.33,0,0,1,1.59,1c1.18,4.89,2.2,9.92,3.05,15a1.34,1.34,0,0,1-1.1,1.52Zm-7.07-29.5c-2.78-5.72-4.49-10.5-6.34-15.12a1.32,1.32,0,0,1,2.46-1c1.86,4.68,3.59,9.52,5.13,14.38a1.31,1.31,0,0,1-.85,1.66A1.39,1.39,0,0,1,1125.5,411.11ZM1114.24,383c-3.38-5.23-5.79-9.69-8.33-14a1.32,1.32,0,1,1,2.27-1.35c2.58,4.38,5,8.9,7.24,13.46a1.32,1.32,0,0,1-.6,1.76A1.36,1.36,0,0,1,1114.24,383Zm-15.43-26.11c-3.91-4.61-7-8.65-10.2-12.55a1.32,1.32,0,0,1,2-1.69c3.28,4,6.38,8.06,9.24,12.16a1.33,1.33,0,0,1-.32,1.84A1.34,1.34,0,0,1,1098.81,356.85Zm-19.28-23.39c-4.41-4-8.07-7.47-11.84-10.8a1.32,1.32,0,0,1,1.74-2c3.83,3.38,7.54,6.93,11,10.55a1.31,1.31,0,0,1,0,1.86A1.28,1.28,0,0,1,1079.53,333.46ZM1056.8,313.4c-4.75-3.26-8.9-6.16-13.14-8.9a1.32,1.32,0,1,1,1.42-2.22c4.3,2.78,8.51,5.72,12.52,8.75a1.32,1.32,0,0,1-.8,2.37Zm-25.45-16.46c-4.93-2.53-9.46-4.82-14.08-7a1.32,1.32,0,1,1,1.12-2.39c4.67,2.18,9.25,4.49,13.6,6.88a1.32,1.32,0,0,1,.52,1.8A1.31,1.31,0,0,1,1031.35,296.94Z"/><path class="cls-4" d="M981.58,257c-2.36-5.8-4-10.53-6.09-15.08a1.32,1.32,0,0,1,2.39-1.12,74,74,0,0,1,5,14.59,1.32,1.32,0,0,1-1,1.58A1.36,1.36,0,0,1,981.58,257ZM843.8,238.89c-1.4-1.89-.88-2.54-.16-2.63a22.66,22.66,0,0,0,12.67-6.15,1.32,1.32,0,0,1,1.82,1.91A25.38,25.38,0,0,1,844,238.88Zm-12.14-6.41c-1.43-1.72-1.5-2.42-1.51-3.16,0-3.38,1.42-7.29,4.21-11.62,1.33-1.92,2.14-2,2.74-1.64a1.32,1.32,0,0,1,.31,1.84c-3.35,5.13-4.62,8.55-4.62,11.41.3,2.32-.16,3-.88,3.15A1.1,1.1,0,0,1,831.66,232.48ZM969,229.65c-3.9-4.5-7.18-8.31-10.8-11.88a1.32,1.32,0,1,1,1.85-1.88,90.25,90.25,0,0,1,10,11.67,1.32,1.32,0,0,1-.31,1.84A1.29,1.29,0,0,1,969,229.65ZM865.06,219.53c-1.15-.34-1.49-1.11-1.23-1.79a57.51,57.51,0,0,0,3.3-14.41,1.34,1.34,0,0,1,1.44-1.18,1.31,1.31,0,0,1,1.18,1.44,59.66,59.66,0,0,1-3.46,15.09A1.32,1.32,0,0,1,865.06,219.53Zm82.49-11.16a133,133,0,0,0-13.56-8,1.33,1.33,0,0,1-.59-1.77,1.31,1.31,0,0,1,1.77-.59,95.68,95.68,0,0,1,13.15,8,1.32,1.32,0,0,1-.77,2.39ZM847.22,208c-1.5-1.18-1.35-2-.74-2.41a68.8,68.8,0,0,1,13.7-7.11,1.32,1.32,0,1,1,1,2.45A66.42,66.42,0,0,0,848,207.78,1.38,1.38,0,0,1,847.22,208Zm28-11.36c-1.45-1.75-1-2.45-.29-2.61a128.41,128.41,0,0,1,15.15-2.44,1.32,1.32,0,1,1,.26,2.62,127.14,127.14,0,0,0-14.83,2.39A1,1,0,0,1,875.19,196.65Zm45.21-1.54a48.39,48.39,0,0,0-5.12-.93,97.07,97.07,0,0,0-10-.62,1.32,1.32,0,0,1,0-2.64,102,102,0,0,1,10.24.64,45.4,45.4,0,0,1,5.14.95,1.32,1.32,0,0,1-.32,2.6Zm-51.92-5.49c-1.72-5.91-2.51-10.89-3.67-16a1.32,1.32,0,0,1,1-1.58,1.3,1.3,0,0,1,1.58,1,111.07,111.07,0,0,1,2.41,15.16,1.31,1.31,0,0,1-1.2,1.42Zm-6.57-29.56c-2.6-4.81-4.13-8.74-5.82-12.56l-1-2.29a1.32,1.32,0,0,1,.64-1.75,1.34,1.34,0,0,1,1.75.65l1,2.33c1.72,3.89,3.28,7.88,4.65,11.87a1.32,1.32,0,0,1-.82,1.68A1.29,1.29,0,0,1,861.91,160.06Zm-364.2-1.2c-1.3-.56-1.51-1.37-1.13-2,2.59-4.33,5.42-8.62,8.41-12.75a1.32,1.32,0,0,1,2.14,1.55c-2.95,4.06-5.74,8.29-8.29,12.56A1.33,1.33,0,0,1,497.71,158.86Zm17.77-24.55c-1.41-.79-1.47-1.63-1-2.17,3.3-3.82,6.81-7.57,10.44-11.15a1.32,1.32,0,0,1,1.85,1.87c-3.58,3.54-7,7.24-10.29,11A1.33,1.33,0,0,1,515.48,134.31Zm333.67-1.72c-3.72-4.92-6.57-9.09-9.6-13a1.32,1.32,0,1,1,2.08-1.61,137.53,137.53,0,0,1,8.64,12.64,1.32,1.32,0,0,1-1.12,2ZM537.05,113c-1.48-1-1.4-1.85-.85-2.32,3.83-3.24,7.87-6.4,12-9.42a1.32,1.32,0,0,1,1.55,2.13c-4.1,3-8.09,6.11-11.87,9.3A1.29,1.29,0,0,1,537.05,113Zm293.65-4.45c-4.44-4-8.15-7.45-12-10.6a1.32,1.32,0,0,1,1.67-2,133.08,133.08,0,0,1,11.26,10.41,1.31,1.31,0,0,1,0,1.86A1.29,1.29,0,0,1,830.7,108.57ZM561.56,95.18c-1.5-1.23-1.32-2.05-.7-2.43,4.29-2.68,8.74-5.25,13.21-7.65a1.32,1.32,0,1,1,1.24,2.33c-4.42,2.36-8.81,4.91-13,7.56A1.37,1.37,0,0,1,561.56,95.18Zm245.73-5.84c-3.1-1.76-5.21-3-7.17-4.08-2.21-1.18-4.43-2.33-6.67-3.43a1.32,1.32,0,0,1,1.17-2.37c2.26,1.12,4.52,2.28,6.75,3.48,2,1.09,4.2,2.4,6.64,4a1.32,1.32,0,0,1-.72,2.42Zm-219-8.47c-1.51-1.44-1.22-2.23-.55-2.52,4.61-2.1,9.35-4.08,14.08-5.88a1.32,1.32,0,0,1,.93,2.47c-4.67,1.77-9.35,3.73-13.92,5.8A1.19,1.19,0,0,1,588.3,80.87Zm191.91-5.14c-5.12-2-9.88-3.76-14.64-5.34a1.32,1.32,0,0,1,.83-2.51c4.83,1.61,9.64,3.39,14.31,5.31a1.32,1.32,0,0,1-.5,2.54ZM616.64,70.06c-1.48-1.62-1.09-2.36-.39-2.58C621,66,626,64.6,630.94,63.38a1.32,1.32,0,0,1,.63,2.56c-4.9,1.22-9.79,2.58-14.54,4.06A1.32,1.32,0,0,1,616.64,70.06Zm134.79-3.9c-5.16-1.29-10.11-2.41-15-3.35a1.29,1.29,0,0,1-1-1.53,1.28,1.28,0,0,1,1.54-1.05c5,1,10,2.07,14.88,3.34a1.31,1.31,0,0,1,1,1.6A1.33,1.33,0,0,1,751.43,66.16ZM646.09,62.79c-1.43-1.8-1-2.48-.24-2.62,5-.91,10-1.69,15.08-2.3A1.37,1.37,0,0,1,662.4,59a1.32,1.32,0,0,1-1.15,1.47c-5,.61-10,1.37-14.93,2.28Zm75.55-2.3q-7.64-.95-15.18-1.4a1.32,1.32,0,0,1-1.24-1.4,1.4,1.4,0,0,1,1.39-1.24c5.09.32,10.21.79,15.19,1.41a1.32,1.32,0,0,1-.16,2.63Zm-45.45-1.38c-1.36-2-.8-2.59-.08-2.64,5.11-.31,10.24-.47,15.25-.47a1.32,1.32,0,0,1,0,2.64c-5,0-10,.15-15.08.47Z"/><path class="cls-4" d="M575.44,516a1.33,1.33,0,0,1-1.33-1.35c0-.2.54-19.92,3.28-33.12s-7.28-34.8-13.67-37.22c-3.43-1.3-6.64-1.13-8.57.46a4.92,4.92,0,0,0-1.58,4.83,52.17,52.17,0,0,0,4.61,14.43c2,4.44,3.5,7.64,1.51,13.27-2.61,7.37-6.68,8.4-8.31,8.5a5.08,5.08,0,0,1-4.86-2.66c-1.41-2.83-6.59-24.35,1.62-35.49,4.11-5.24,6.91-9.53,3-13.32-2.88-2.77-8.38-1.93-11.72.6-5,3.79-7.4,11.17-9.15,16.55-6.28,19.3-.08,37.45,0,37.63a1.32,1.32,0,1,1-2.49.87c-.27-.77-6.57-19.14,0-39.31,1.86-5.72,4.41-13.55,10.07-17.84,4.18-3.17,11.15-4.23,15.14-.4a8,8,0,0,1,2.05,9.34c2.62-1.29,6.1-1.29,9.69.07,8.14,3.09,18.17,26.45,15.31,40.23-2.69,13-3.22,32.45-3.22,32.65A1.32,1.32,0,0,1,575.44,516ZM550.85,448.5c-8,10.78-3.23,31-2,33.5a2.36,2.36,0,0,0,2.34,1.2c2.3-.14,4.54-2.66,6-6.74,1.64-4.62.49-7.13-1.42-11.29a54.24,54.24,0,0,1-4.8-15.09A7.83,7.83,0,0,1,550.85,448.5Z"/><path class="cls-4" d="M515.47,493.4c-3.89-13.45-6-40.27,4.59-52.94,4-4.83,9.44-7.22,16.18-7a1.34,1.34,0,0,1,1.29,1.35,1.36,1.36,0,0,1-1.36,1.29c-5.88-.1-10.61,1.88-14.09,6-9.94,11.9-7.82,37.69-5.32,49.66a1.31,1.31,0,0,1-1,1.56Z"/><path class="cls-4" d="M554.2,442.07c-1.51-1.27-1.3-2.08-.68-2.45l13-7.81a1.32,1.32,0,1,1,1.36,2.26l-13,7.81A1.43,1.43,0,0,1,554.2,442.07Zm26-15.63c-1.51-1.26-1.3-2.07-.68-2.44l13-7.81a1.32,1.32,0,1,1,1.35,2.26l-13,7.81A1.35,1.35,0,0,1,580.23,426.44Zm26-15.61c-1.5-1.27-1.3-2.08-.68-2.45l13-7.81a1.32,1.32,0,1,1,1.35,2.26l-13,7.81A1.3,1.3,0,0,1,606.25,410.83Zm26-15.62c-1.51-1.26-1.31-2.07-.68-2.44l13-7.82a1.32,1.32,0,1,1,1.35,2.26L633,395A1.38,1.38,0,0,1,632.28,395.21Zm26-15.62c-1.5-1.26-1.3-2.07-.68-2.45l13-7.81A1.32,1.32,0,0,1,672,371.6l-13,7.81A1.38,1.38,0,0,1,658.3,379.59Zm26-15.62c-1.5-1.26-1.3-2.07-.68-2.44l13-7.81a1.31,1.31,0,0,1,1.81.45A1.33,1.33,0,0,1,698,356l-13,7.81A1.38,1.38,0,0,1,684.33,364Z"/><path class="cls-4" d="M517.6,530.54c-14.35-20.89-14.3-44.71-14.27-57.51,0-15.51,12.86-26.66,13.41-27.13a1.32,1.32,0,1,1,1.71,2C518.33,448,506,458.76,506,473c0,12.52-.08,35.83,12.74,55.46a1.32,1.32,0,0,1-.38,1.83A1.34,1.34,0,0,1,517.6,530.54Z"/><path class="cls-4" d="M740.29,405.57c-.9-.35-8.43-6.3-20.21-12.28-12.54-6.36-24.54-28.78-21.88-37.07,1.18-3.64,3.35-6.37,6-7.61a8,8,0,0,1-6-7.43c-.51-5.5,4.67-10.29,9.76-11.59,6.88-1.74,14.59,1.16,20.22,3.27,19.85,7.46,30.28,23.84,30.71,24.54a1.32,1.32,0,1,1-2.23,1.4c-.1-.17-10.42-16.33-29.41-23.47-5.3-2-12.56-4.74-18.65-3.18-4.05,1-8.14,4.81-7.78,8.79.5,5.47,5.59,5.94,12.2,6,13.9.54,27.47,18,28.79,20.88a5,5,0,0,1-.95,5.46c-1.1,1.21-4.42,3.76-11.82,1.19-5.64-2-7.24-5.1-9.43-9.46a52.13,52.13,0,0,0-8.41-12.6,4.9,4.9,0,0,0-4.76-1.79c-2.45.53-4.58,2.92-5.7,6.41-2.1,6.51,8.66,27.88,20.56,33.91a125,125,0,0,1,19.82,12.28,1.32,1.32,0,0,1-.81,2.35Zm-28.29-56a54.75,54.75,0,0,1,9.94,14.26c2.06,4.08,3.31,6.54,7.94,8.15,4.11,1.42,7.45,1.24,9-.47a2.41,2.41,0,0,0,.52-2.58c-1.46-3.15-14.6-18.9-26.46-19.35Z"/><path class="cls-4" d="M784.63,381.47c-6.07-19.72-14.36-31.68-30.87-43.62-10.73-7.78-25-15.53-40.52-6.33a1.33,1.33,0,0,1-1.81-.47,1.31,1.31,0,0,1,.46-1.8c16.82-10,32-1.78,43.42,6.46,17.06,12.35,25.64,24.72,30.6,44.12a1.32,1.32,0,0,1-.95,1.6A1.35,1.35,0,0,1,784.63,381.47Z"/><path class="cls-4" d="M141,360.86c-3.47-.4-5.47-1.58-6.84-3.41l-18.25-24.2a8.54,8.54,0,0,1,1.68-12L141.79,303a8.57,8.57,0,0,1,12,1.68L172,328.91a8.56,8.56,0,0,1-1.68,12l-24.21,18.24A8.48,8.48,0,0,1,141,360.86Zm5.94-56.92a5.86,5.86,0,0,0-3.55,1.19l-24.21,18.25a5.9,5.9,0,0,0-1.16,8.28l18.25,24.21a5.91,5.91,0,0,0,8.27,1.16l24.21-18.25a5.91,5.91,0,0,0,1.17-8.28l-18.26-24.21A5.92,5.92,0,0,0,146.93,303.94Z"/><path class="cls-4" d="M176.69,304.07a1.34,1.34,0,0,1-1.32-1.34,6.19,6.19,0,0,0-1.25-3.83l-17.89-23.72a6.19,6.19,0,0,0-8.7-1.22l-23.72,17.88a6.19,6.19,0,0,0-2.41,4.06,1.32,1.32,0,0,1-2.61-.38,8.79,8.79,0,0,1,3.43-5.78L146,271.85a8.86,8.86,0,0,1,6.55-1.7,8.77,8.77,0,0,1,5.84,3.44l17.89,23.73a8.71,8.71,0,0,1,1.78,5.45A1.32,1.32,0,0,1,176.69,304.07Z"/><path class="cls-4" d="M148.86,300.46a1.36,1.36,0,0,1-1.31-1.5l3.28-23.3a1.32,1.32,0,1,1,2.61.36l-3.27,23.31A1.33,1.33,0,0,1,148.86,300.46Z"/><path class="cls-4" d="M696.79,494.07H586.65a1.32,1.32,0,1,1,0-2.64H696.79a62.18,62.18,0,0,0,29.08-6.9,1.32,1.32,0,1,1,1.2,2.35A65.65,65.65,0,0,1,696.79,494.07Z"/><path class="cls-4" d="M497.71,494.07H397.27a1.32,1.32,0,0,1,0-2.64H497.71a1.32,1.32,0,1,1,0,2.64Z"/><path class="cls-4" d="M338.39,489.73a88.68,88.68,0,0,1-22.49-12.54c-8.19-6.11-17.36-23.07-17.75-23.79A68.66,68.66,0,0,1,292,425V237.71a69.2,69.2,0,0,1,69.12-69.12h92.58a1.32,1.32,0,0,1,0,2.63H361.16a66.57,66.57,0,0,0-66.49,66.49V425a66,66,0,0,0,5.85,27.29c0,.09,9.24,17.07,17,22.84a88.94,88.94,0,0,0,21.38,12.1,1.32,1.32,0,0,1-.47,2.55Z"/><path class="cls-4" d="M764,337.76a1.32,1.32,0,0,1-1.32-1.31V237.71a66.57,66.57,0,0,0-66.49-66.49H541.54a1.32,1.32,0,1,1,0-2.63H696.15a69.2,69.2,0,0,1,69.13,69.12v98.74A1.32,1.32,0,0,1,764,337.76Z"/><path class="cls-4" d="M989.74,748.42h-133a1.32,1.32,0,1,1,0-2.63h133A32.28,32.28,0,0,0,1022,713.54V613.59a32.28,32.28,0,0,0-32.25-32.25H888.8a1.32,1.32,0,1,1,0-2.63H989.74a34.92,34.92,0,0,1,34.89,34.88v99.95A34.93,34.93,0,0,1,989.74,748.42Z"/><path class="cls-4" d="M115.86,327.64a1.35,1.35,0,0,1-1.3-1.5L119,294.46a1.38,1.38,0,0,1,1.49-1.12,1.32,1.32,0,0,1,1.12,1.49l-4.48,31.67A1.33,1.33,0,0,1,115.86,327.64Z"/><path class="cls-4" d="M172.28,334.91a1.36,1.36,0,0,1-1.31-1.5l4.48-31.67a1.4,1.4,0,0,1,1.5-1.13,1.32,1.32,0,0,1,1.12,1.49l-4.48,31.68A1.32,1.32,0,0,1,172.28,334.91Z"/><path class="cls-4" d="M745.14,251.27h-433a1.32,1.32,0,1,1,0-2.64h433a1.32,1.32,0,1,1,0,2.64Z"/><path class="cls-4" d="M717.27,229.23a15.81,15.81,0,1,1,15.81-15.8A15.82,15.82,0,0,1,717.27,229.23Zm0-29a13.17,13.17,0,1,0,13.17,13.17A13.18,13.18,0,0,0,717.27,200.26Z"/><path class="cls-4" d="M672,229.23a15.81,15.81,0,1,1,15.79-15.8A15.82,15.82,0,0,1,672,229.23Zm0-29a13.17,13.17,0,1,0,13.16,13.17A13.17,13.17,0,0,0,672,200.26Z"/><path class="cls-4" d="M626.76,229.23a15.81,15.81,0,1,1,15.8-15.8A15.82,15.82,0,0,1,626.76,229.23Zm0-29a13.17,13.17,0,1,0,13.16,13.17A13.17,13.17,0,0,0,626.76,200.26Z"/><path class="cls-4" d="M708.18,442.07h-137a1.32,1.32,0,1,1,0-2.64h135.7V390.49a1.32,1.32,0,0,1,2.64,0v50.26A1.32,1.32,0,0,1,708.18,442.07Z"/><path class="cls-4" d="M532.18,427.54a1.33,1.33,0,0,1-1.32-1.32V324.78a1.33,1.33,0,0,1,1.32-1.32h162.4a1.32,1.32,0,0,1,0,2.64H533.5V426.22A1.32,1.32,0,0,1,532.18,427.54Z"/><path class="cls-4" d="M464.33,460.54a1.32,1.32,0,0,1-1.31-1.32V273.07a1.32,1.32,0,1,1,2.63,0V459.22A1.32,1.32,0,0,1,464.33,460.54Z"/><path class="cls-4" d="M390.84,341.52H338.39a1.33,1.33,0,0,1-1.32-1.32V287.76a1.33,1.33,0,0,1,1.32-1.32h52.45a1.33,1.33,0,0,1,1.32,1.32V340.2A1.33,1.33,0,0,1,390.84,341.52Zm-51.13-2.63h49.81V289.08H339.71Z"/><path class="cls-4" d="M390.84,431.78H338.39a1.33,1.33,0,0,1-1.32-1.32V378a1.33,1.33,0,0,1,1.32-1.32h52.45a1.33,1.33,0,0,1,1.32,1.32v52.45A1.33,1.33,0,0,1,390.84,431.78Zm-51.13-2.64h49.81V379.33H339.71Z"/><path class="cls-4" d="M496.71,757.81a29.71,29.71,0,1,1,29.7-29.7A29.74,29.74,0,0,1,496.71,757.81Zm0-56.78a27.08,27.08,0,1,0,27.07,27.08A27.11,27.11,0,0,0,496.71,701Z"/><path class="cls-4" d="M210.42,162.5c-1.45-.9-1.45-1.74-.94-2.25l24.74-24.74a1.32,1.32,0,0,1,1.86,1.86l-24.73,24.74A1.32,1.32,0,0,1,210.42,162.5Z"/><path class="cls-4" d="M235.15,162.5c-.93-.39-25.67-25.13-25.67-25.13a1.32,1.32,0,0,1,1.87-1.86l24.73,24.74a1.3,1.3,0,0,1,0,1.86A1.29,1.29,0,0,1,235.15,162.5Z"/><path class="cls-4" d="M677.44,712.69c-6.3-17.63-24.49-29.3-45.51-29.3-19.84,0-37.28,10.39-43.38,25.85a1.32,1.32,0,0,1-1.71.74,1.3,1.3,0,0,1-.74-1.7c6.49-16.46,24.91-27.52,45.83-27.52,22.17,0,41.4,12.43,46.78,30.23a1.34,1.34,0,0,1-.89,1.65A1.24,1.24,0,0,1,677.44,712.69Z"/></svg>